<mxfile host="app.diagrams.net" modified="2024-04-10T00:01:03.401Z" agent="Mozilla/5.0 (Windows NT 10.0; Win64; x64; rv:124.0) Gecko/20100101 Firefox/124.0" etag="55Xy5O6VJAyOAUkb-ykr" version="24.2.2" type="github">
  <diagram name="Page-1" id="x12bkyuIzFJq4ZUIWQfr">
    <mxGraphModel dx="3460" dy="2151" grid="0" gridSize="10" guides="1" tooltips="1" connect="1" arrows="1" fold="1" page="0" pageScale="1" pageWidth="827" pageHeight="1169" math="0" shadow="0">
      <root>
        <mxCell id="0" />
        <mxCell id="1" parent="0" />
        <mxCell id="L_YjPf033X-OpGffFkXy-134" style="edgeStyle=none;curved=1;rounded=0;orthogonalLoop=1;jettySize=auto;html=1;exitX=0.5;exitY=0;exitDx=0;exitDy=0;fontSize=12;startSize=8;endSize=8;entryX=0.5;entryY=1;entryDx=0;entryDy=0;" parent="1" source="Qv3d4LhTkvHDMVTxzrqH-2" target="L_YjPf033X-OpGffFkXy-135" edge="1">
          <mxGeometry relative="1" as="geometry">
            <mxPoint x="-595.2941176470586" y="-540.8823529411766" as="targetPoint" />
          </mxGeometry>
        </mxCell>
        <mxCell id="tDOr0GZJXbc1pfqS6N4M-6" value="INSUMO" style="edgeLabel;html=1;align=center;verticalAlign=middle;resizable=0;points=[];fontSize=12;" parent="L_YjPf033X-OpGffFkXy-134" vertex="1" connectable="0">
          <mxGeometry x="0.0052" y="-1" relative="1" as="geometry">
            <mxPoint x="-1" y="-41" as="offset" />
          </mxGeometry>
        </mxCell>
        <mxCell id="Qv3d4LhTkvHDMVTxzrqH-2" value="(Producto para Venta)" style="rounded=0;whiteSpace=wrap;html=1;fillStyle=auto;" parent="1" vertex="1">
          <mxGeometry x="-540" y="-120" width="141" height="44" as="geometry" />
        </mxCell>
        <mxCell id="Qv3d4LhTkvHDMVTxzrqH-14" value="Producto Helado" style="rounded=0;whiteSpace=wrap;html=1;dashed=1;" parent="1" vertex="1">
          <mxGeometry x="-655.5" y="44" width="106" height="45" as="geometry" />
        </mxCell>
        <mxCell id="Qv3d4LhTkvHDMVTxzrqH-15" value="Untable" style="rounded=0;whiteSpace=wrap;html=1;" parent="1" vertex="1">
          <mxGeometry x="-408" y="45" width="106" height="45" as="geometry" />
        </mxCell>
        <mxCell id="L_YjPf033X-OpGffFkXy-85" style="edgeStyle=orthogonalEdgeStyle;rounded=0;orthogonalLoop=1;jettySize=auto;html=1;exitX=0.5;exitY=0;exitDx=0;exitDy=0;entryX=0;entryY=0.75;entryDx=0;entryDy=0;fontSize=12;startSize=8;endSize=8;" parent="1" source="L1drH5XASF7p8J0Dx8UT-1" target="L_YjPf033X-OpGffFkXy-36" edge="1">
          <mxGeometry relative="1" as="geometry">
            <Array as="points">
              <mxPoint x="-61" y="-538" />
            </Array>
          </mxGeometry>
        </mxCell>
        <mxCell id="L_YjPf033X-OpGffFkXy-86" value="PROCEDIMIENTO" style="edgeLabel;html=1;align=center;verticalAlign=middle;resizable=0;points=[];fontSize=12;" parent="L_YjPf033X-OpGffFkXy-85" vertex="1" connectable="0">
          <mxGeometry x="0.6372" y="4" relative="1" as="geometry">
            <mxPoint x="-560" y="122" as="offset" />
          </mxGeometry>
        </mxCell>
        <mxCell id="Qv3d4LhTkvHDMVTxzrqH-3" value="Ingrediente" style="rounded=0;whiteSpace=wrap;html=1;" parent="1" vertex="1">
          <mxGeometry x="320.75" y="-120" width="187" height="44" as="geometry" />
        </mxCell>
        <mxCell id="Qv3d4LhTkvHDMVTxzrqH-23" style="edgeStyle=none;curved=1;rounded=1;orthogonalLoop=1;jettySize=auto;html=1;entryX=0.25;entryY=1;entryDx=0;entryDy=0;fontSize=12;strokeColor=default;shape=flexArrow;endSize=5.96;startArrow=none;startFill=0;strokeWidth=1;width=2.6666666666666665;endWidth=9;exitX=0.5;exitY=0;exitDx=0;exitDy=0;" parent="1" source="Qv3d4LhTkvHDMVTxzrqH-14" target="Qv3d4LhTkvHDMVTxzrqH-2" edge="1">
          <mxGeometry relative="1" as="geometry">
            <mxPoint x="-503.5" y="57" as="sourcePoint" />
            <mxPoint x="-308.5" y="-72" as="targetPoint" />
          </mxGeometry>
        </mxCell>
        <mxCell id="Qv3d4LhTkvHDMVTxzrqH-24" style="edgeStyle=none;curved=1;rounded=1;orthogonalLoop=1;jettySize=auto;html=1;entryX=0.75;entryY=1;entryDx=0;entryDy=0;fontSize=12;strokeColor=default;shape=flexArrow;endSize=5.96;startArrow=none;startFill=0;strokeWidth=1;width=2.6666666666666665;endWidth=9;exitX=0.5;exitY=0;exitDx=0;exitDy=0;" parent="1" source="Qv3d4LhTkvHDMVTxzrqH-15" target="Qv3d4LhTkvHDMVTxzrqH-2" edge="1">
          <mxGeometry relative="1" as="geometry">
            <mxPoint x="12.5" y="30" as="sourcePoint" />
            <mxPoint x="-179.5" y="-99" as="targetPoint" />
          </mxGeometry>
        </mxCell>
        <mxCell id="L_YjPf033X-OpGffFkXy-229" style="edgeStyle=orthogonalEdgeStyle;rounded=0;orthogonalLoop=1;jettySize=auto;html=1;exitX=1;exitY=0.5;exitDx=0;exitDy=0;entryX=1;entryY=0.5;entryDx=0;entryDy=0;fontSize=12;startSize=8;endSize=8;" parent="1" source="Qv3d4LhTkvHDMVTxzrqH-3" target="L_YjPf033X-OpGffFkXy-170" edge="1">
          <mxGeometry relative="1" as="geometry">
            <Array as="points">
              <mxPoint x="972" y="-98" />
              <mxPoint x="972" y="-885" />
            </Array>
            <mxPoint x="826.8699999999999" y="-222" as="sourcePoint" />
          </mxGeometry>
        </mxCell>
        <mxCell id="Qv3d4LhTkvHDMVTxzrqH-29" value="" style="ellipse;whiteSpace=wrap;html=1;aspect=fixed;" parent="1" vertex="1">
          <mxGeometry x="553.5" y="-43.5" width="27" height="27" as="geometry" />
        </mxCell>
        <mxCell id="Qv3d4LhTkvHDMVTxzrqH-30" value="&lt;div&gt;Proteína&amp;nbsp;&lt;/div&gt;&lt;div&gt;de Arveja&lt;/div&gt;" style="text;html=1;align=center;verticalAlign=middle;resizable=0;points=[];autosize=1;strokeColor=none;fillColor=none;fontSize=12;" parent="1" vertex="1">
          <mxGeometry x="533" y="-16.5" width="69" height="41" as="geometry" />
        </mxCell>
        <mxCell id="Qv3d4LhTkvHDMVTxzrqH-32" value="" style="ellipse;whiteSpace=wrap;html=1;aspect=fixed;" parent="1" vertex="1">
          <mxGeometry x="477.5" y="-43.5" width="27" height="27" as="geometry" />
        </mxCell>
        <mxCell id="Qv3d4LhTkvHDMVTxzrqH-33" value="Azúcar" style="text;html=1;align=center;verticalAlign=middle;resizable=0;points=[];autosize=1;strokeColor=none;fillColor=none;fontSize=12;" parent="1" vertex="1">
          <mxGeometry x="464" y="-8.5" width="55" height="26" as="geometry" />
        </mxCell>
        <mxCell id="Qv3d4LhTkvHDMVTxzrqH-37" value="" style="ellipse;whiteSpace=wrap;html=1;aspect=fixed;" parent="1" vertex="1">
          <mxGeometry x="621.5" y="-43.5" width="27" height="27" as="geometry" />
        </mxCell>
        <mxCell id="Qv3d4LhTkvHDMVTxzrqH-38" value="&lt;div&gt;Goma&amp;nbsp;&lt;/div&gt;&lt;div&gt;Guar&lt;/div&gt;" style="text;html=1;align=center;verticalAlign=middle;resizable=0;points=[];autosize=1;strokeColor=none;fillColor=none;fontSize=12;" parent="1" vertex="1">
          <mxGeometry x="610" y="-15.5" width="54" height="41" as="geometry" />
        </mxCell>
        <mxCell id="Qv3d4LhTkvHDMVTxzrqH-40" value="" style="ellipse;whiteSpace=wrap;html=1;aspect=fixed;" parent="1" vertex="1">
          <mxGeometry x="760.5" y="-44.5" width="27" height="27" as="geometry" />
        </mxCell>
        <mxCell id="Qv3d4LhTkvHDMVTxzrqH-41" value="&lt;div&gt;Lecitina&amp;nbsp;&lt;/div&gt;&lt;div&gt;de Girasol&lt;/div&gt;" style="text;html=1;align=center;verticalAlign=middle;resizable=0;points=[];autosize=1;strokeColor=none;fillColor=none;fontSize=12;" parent="1" vertex="1">
          <mxGeometry x="739" y="-16.5" width="73" height="41" as="geometry" />
        </mxCell>
        <mxCell id="Qv3d4LhTkvHDMVTxzrqH-42" value="" style="ellipse;whiteSpace=wrap;html=1;aspect=fixed;" parent="1" vertex="1">
          <mxGeometry x="690.5" y="-45" width="27" height="27" as="geometry" />
        </mxCell>
        <mxCell id="Qv3d4LhTkvHDMVTxzrqH-43" value="&lt;div&gt;Aceite&lt;/div&gt;&lt;div&gt;de Coco&lt;br&gt;&lt;/div&gt;" style="text;html=1;align=center;verticalAlign=middle;resizable=0;points=[];autosize=1;strokeColor=none;fillColor=none;fontSize=12;" parent="1" vertex="1">
          <mxGeometry x="671" y="-16.5" width="63" height="41" as="geometry" />
        </mxCell>
        <mxCell id="Qv3d4LhTkvHDMVTxzrqH-44" value="" style="ellipse;whiteSpace=wrap;html=1;aspect=fixed;" parent="1" vertex="1">
          <mxGeometry x="796.5" y="29.5" width="27" height="27" as="geometry" />
        </mxCell>
        <mxCell id="Qv3d4LhTkvHDMVTxzrqH-45" value="Mosto&lt;br&gt;Concentrado" style="text;html=1;align=center;verticalAlign=middle;resizable=0;points=[];autosize=1;strokeColor=none;fillColor=none;fontSize=12;" parent="1" vertex="1">
          <mxGeometry x="768" y="57.5" width="87" height="41" as="geometry" />
        </mxCell>
        <mxCell id="Qv3d4LhTkvHDMVTxzrqH-46" value="" style="ellipse;whiteSpace=wrap;html=1;aspect=fixed;" parent="1" vertex="1">
          <mxGeometry x="469.5" y="186" width="27" height="27" as="geometry" />
        </mxCell>
        <mxCell id="Qv3d4LhTkvHDMVTxzrqH-47" value="&lt;div&gt;Cacao&lt;/div&gt;&lt;div&gt;Amargo&lt;br&gt;&lt;/div&gt;" style="text;html=1;align=center;verticalAlign=middle;resizable=0;points=[];autosize=1;strokeColor=none;fillColor=none;fontSize=12;" parent="1" vertex="1">
          <mxGeometry x="455" y="214" width="60" height="41" as="geometry" />
        </mxCell>
        <mxCell id="Qv3d4LhTkvHDMVTxzrqH-48" value="" style="ellipse;whiteSpace=wrap;html=1;aspect=fixed;" parent="1" vertex="1">
          <mxGeometry x="515.41" y="103" width="27" height="27" as="geometry" />
        </mxCell>
        <mxCell id="Qv3d4LhTkvHDMVTxzrqH-49" value="&lt;div&gt;Harina &lt;br&gt;&lt;/div&gt;&lt;div&gt;de Chañar&lt;br&gt;&lt;/div&gt;" style="text;html=1;align=center;verticalAlign=middle;resizable=0;points=[];autosize=1;strokeColor=none;fillColor=none;fontSize=12;" parent="1" vertex="1">
          <mxGeometry x="493.90999999999997" y="131" width="74" height="41" as="geometry" />
        </mxCell>
        <mxCell id="Qv3d4LhTkvHDMVTxzrqH-50" value="" style="ellipse;whiteSpace=wrap;html=1;aspect=fixed;" parent="1" vertex="1">
          <mxGeometry x="516.5" y="29.5" width="27" height="27" as="geometry" />
        </mxCell>
        <mxCell id="Qv3d4LhTkvHDMVTxzrqH-51" value="Almendra" style="text;html=1;align=center;verticalAlign=middle;resizable=0;points=[];autosize=1;strokeColor=none;fillColor=none;fontSize=12;" parent="1" vertex="1">
          <mxGeometry x="495.5" y="65.5" width="69" height="26" as="geometry" />
        </mxCell>
        <mxCell id="Qv3d4LhTkvHDMVTxzrqH-53" value="" style="ellipse;whiteSpace=wrap;html=1;aspect=fixed;" parent="1" vertex="1">
          <mxGeometry x="583" y="28.5" width="27" height="27" as="geometry" />
        </mxCell>
        <mxCell id="Qv3d4LhTkvHDMVTxzrqH-54" value="Nuez" style="text;html=1;align=center;verticalAlign=middle;resizable=0;points=[];autosize=1;strokeColor=none;fillColor=none;fontSize=12;" parent="1" vertex="1">
          <mxGeometry x="574" y="64.5" width="46" height="26" as="geometry" />
        </mxCell>
        <mxCell id="Qv3d4LhTkvHDMVTxzrqH-55" value="" style="ellipse;whiteSpace=wrap;html=1;aspect=fixed;" parent="1" vertex="1">
          <mxGeometry x="652.5" y="28.5" width="27" height="27" as="geometry" />
        </mxCell>
        <mxCell id="Qv3d4LhTkvHDMVTxzrqH-56" value="Coco &lt;br&gt;Rallado" style="text;html=1;align=center;verticalAlign=middle;resizable=0;points=[];autosize=1;strokeColor=none;fillColor=none;fontSize=12;" parent="1" vertex="1">
          <mxGeometry x="636.5" y="57.5" width="59" height="41" as="geometry" />
        </mxCell>
        <mxCell id="Qv3d4LhTkvHDMVTxzrqH-57" value="" style="ellipse;whiteSpace=wrap;html=1;aspect=fixed;" parent="1" vertex="1">
          <mxGeometry x="724.5" y="28.5" width="27" height="27" as="geometry" />
        </mxCell>
        <mxCell id="Qv3d4LhTkvHDMVTxzrqH-58" value="&lt;div&gt;Extracto&lt;/div&gt;&lt;div&gt;de Vainilla&lt;br&gt;&lt;/div&gt;" style="text;html=1;align=center;verticalAlign=middle;resizable=0;points=[];autosize=1;strokeColor=none;fillColor=none;fontSize=12;" parent="1" vertex="1">
          <mxGeometry x="702" y="59.5" width="72" height="41" as="geometry" />
        </mxCell>
        <mxCell id="Qv3d4LhTkvHDMVTxzrqH-59" value="" style="ellipse;whiteSpace=wrap;html=1;aspect=fixed;" parent="1" vertex="1">
          <mxGeometry x="796.5" y="102.5" width="27" height="27" as="geometry" />
        </mxCell>
        <mxCell id="Qv3d4LhTkvHDMVTxzrqH-60" value="&lt;div&gt;Pasta&amp;nbsp;&lt;/div&gt;&lt;div&gt;de Maní&lt;/div&gt;" style="text;html=1;align=center;verticalAlign=middle;resizable=0;points=[];autosize=1;strokeColor=none;fillColor=none;fontSize=12;" parent="1" vertex="1">
          <mxGeometry x="780" y="133.5" width="61" height="41" as="geometry" />
        </mxCell>
        <mxCell id="Qv3d4LhTkvHDMVTxzrqH-62" value="" style="ellipse;whiteSpace=wrap;html=1;aspect=fixed;" parent="1" vertex="1">
          <mxGeometry x="769.5" y="184" width="27" height="27" as="geometry" />
        </mxCell>
        <mxCell id="Qv3d4LhTkvHDMVTxzrqH-63" value="&lt;div&gt;Manteca&amp;nbsp;&lt;/div&gt;&lt;div&gt;de Cacao&lt;/div&gt;" style="text;html=1;align=center;verticalAlign=middle;resizable=0;points=[];autosize=1;strokeColor=none;fillColor=none;fontSize=12;" parent="1" vertex="1">
          <mxGeometry x="751" y="213" width="69" height="41" as="geometry" />
        </mxCell>
        <mxCell id="Qv3d4LhTkvHDMVTxzrqH-64" value="" style="ellipse;whiteSpace=wrap;html=1;aspect=fixed;" parent="1" vertex="1">
          <mxGeometry x="653.2899999999998" y="103" width="27" height="27" as="geometry" />
        </mxCell>
        <mxCell id="Qv3d4LhTkvHDMVTxzrqH-65" value="Espirulina" style="text;html=1;align=center;verticalAlign=middle;resizable=0;points=[];autosize=1;strokeColor=none;fillColor=none;fontSize=12;" parent="1" vertex="1">
          <mxGeometry x="632.2899999999998" y="136" width="71" height="26" as="geometry" />
        </mxCell>
        <mxCell id="Qv3d4LhTkvHDMVTxzrqH-66" value="" style="ellipse;whiteSpace=wrap;html=1;aspect=fixed;" parent="1" vertex="1">
          <mxGeometry x="530.5" y="186" width="27" height="27" as="geometry" />
        </mxCell>
        <mxCell id="Qv3d4LhTkvHDMVTxzrqH-67" value="&lt;div&gt;Frutilla &lt;br&gt;&lt;/div&gt;&lt;div&gt;Congelada&lt;br&gt;&lt;/div&gt;" style="text;html=1;align=center;verticalAlign=middle;resizable=0;points=[];autosize=1;strokeColor=none;fillColor=none;fontSize=12;" parent="1" vertex="1">
          <mxGeometry x="508" y="216" width="76" height="41" as="geometry" />
        </mxCell>
        <mxCell id="Qv3d4LhTkvHDMVTxzrqH-68" value="" style="ellipse;whiteSpace=wrap;html=1;aspect=fixed;" parent="1" vertex="1">
          <mxGeometry x="724.62" y="103" width="27" height="27" as="geometry" />
        </mxCell>
        <mxCell id="Qv3d4LhTkvHDMVTxzrqH-69" value="&lt;div&gt;Maracuyá&lt;/div&gt;&lt;div&gt;Congelado&lt;br&gt;&lt;/div&gt;" style="text;html=1;align=center;verticalAlign=middle;resizable=0;points=[];autosize=1;strokeColor=none;fillColor=none;fontSize=12;" parent="1" vertex="1">
          <mxGeometry x="700.34" y="133.5" width="76" height="41" as="geometry" />
        </mxCell>
        <mxCell id="Qv3d4LhTkvHDMVTxzrqH-70" value="" style="ellipse;whiteSpace=wrap;html=1;aspect=fixed;" parent="1" vertex="1">
          <mxGeometry x="589.5" y="103" width="27" height="27" as="geometry" />
        </mxCell>
        <mxCell id="Qv3d4LhTkvHDMVTxzrqH-71" value="&lt;div&gt;Esencia&lt;/div&gt;&lt;div&gt;de Menta&lt;br&gt;&lt;/div&gt;" style="text;html=1;align=center;verticalAlign=middle;resizable=0;points=[];autosize=1;strokeColor=none;fillColor=none;fontSize=12;" parent="1" vertex="1">
          <mxGeometry x="569.91" y="132" width="68" height="41" as="geometry" />
        </mxCell>
        <mxCell id="L_YjPf033X-OpGffFkXy-1" value="" style="ellipse;whiteSpace=wrap;html=1;aspect=fixed;" parent="1" vertex="1">
          <mxGeometry x="129.75" y="-45" width="27" height="27" as="geometry" />
        </mxCell>
        <mxCell id="L_YjPf033X-OpGffFkXy-2" value="&lt;div&gt;Base&amp;nbsp;&lt;/div&gt;&lt;div&gt;Blanca&lt;/div&gt;" style="text;html=1;align=center;verticalAlign=middle;resizable=0;points=[];autosize=1;strokeColor=none;fillColor=none;fontSize=12;" parent="1" vertex="1">
          <mxGeometry x="117.25" y="-17" width="55" height="41" as="geometry" />
        </mxCell>
        <mxCell id="L_YjPf033X-OpGffFkXy-3" value="" style="ellipse;whiteSpace=wrap;html=1;aspect=fixed;" parent="1" vertex="1">
          <mxGeometry x="92.75" y="28.5" width="27" height="27" as="geometry" />
        </mxCell>
        <mxCell id="L_YjPf033X-OpGffFkXy-4" value="&lt;div&gt;Mix&lt;/div&gt;&lt;div&gt;Frutilla&lt;br&gt;&lt;/div&gt;" style="text;html=1;align=center;verticalAlign=middle;resizable=0;points=[];autosize=1;strokeColor=none;fillColor=none;fontSize=12;" parent="1" vertex="1">
          <mxGeometry x="79.25" y="57.5" width="54" height="41" as="geometry" />
        </mxCell>
        <mxCell id="L_YjPf033X-OpGffFkXy-8" value="" style="ellipse;whiteSpace=wrap;html=1;aspect=fixed;" parent="1" vertex="1">
          <mxGeometry x="-9" y="100.5" width="27" height="27" as="geometry" />
        </mxCell>
        <mxCell id="L_YjPf033X-OpGffFkXy-9" value="Brownie" style="text;html=1;align=center;verticalAlign=middle;resizable=0;points=[];autosize=1;strokeColor=none;fillColor=none;fontSize=12;" parent="1" vertex="1">
          <mxGeometry x="-25.5" y="135.5" width="61" height="26" as="geometry" />
        </mxCell>
        <mxCell id="L_YjPf033X-OpGffFkXy-10" value="" style="ellipse;whiteSpace=wrap;html=1;aspect=fixed;" parent="1" vertex="1">
          <mxGeometry x="50.5" y="100.5" width="27" height="27" as="geometry" />
        </mxCell>
        <mxCell id="L_YjPf033X-OpGffFkXy-11" value="&lt;div&gt;Bocaditos &lt;br&gt;&lt;/div&gt;&lt;div&gt;de Maní&lt;br&gt;&lt;/div&gt;" style="text;html=1;align=center;verticalAlign=middle;resizable=0;points=[];autosize=1;strokeColor=none;fillColor=none;fontSize=12;" parent="1" vertex="1">
          <mxGeometry x="28.5" y="135.5" width="71" height="41" as="geometry" />
        </mxCell>
        <mxCell id="L_YjPf033X-OpGffFkXy-15" value="" style="ellipse;whiteSpace=wrap;html=1;aspect=fixed;" parent="1" vertex="1">
          <mxGeometry x="115.5" y="100.5" width="27" height="27" as="geometry" />
        </mxCell>
        <mxCell id="L_YjPf033X-OpGffFkXy-16" value="&lt;div&gt;Chocolate&amp;nbsp;&lt;/div&gt;&lt;div&gt;Negro&lt;/div&gt;" style="text;html=1;align=center;verticalAlign=middle;resizable=0;points=[];autosize=1;strokeColor=none;fillColor=none;fontSize=12;" parent="1" vertex="1">
          <mxGeometry x="91.5" y="135.5" width="75" height="41" as="geometry" />
        </mxCell>
        <mxCell id="L_YjPf033X-OpGffFkXy-17" value="" style="ellipse;whiteSpace=wrap;html=1;aspect=fixed;" parent="1" vertex="1">
          <mxGeometry x="176.5" y="101.5" width="27" height="27" as="geometry" />
        </mxCell>
        <mxCell id="L_YjPf033X-OpGffFkXy-18" value="&lt;div&gt;Chocolate&amp;nbsp;&lt;/div&gt;&lt;div&gt;Blanco&lt;/div&gt;" style="text;html=1;align=center;verticalAlign=middle;resizable=0;points=[];autosize=1;strokeColor=none;fillColor=none;fontSize=12;" parent="1" vertex="1">
          <mxGeometry x="152.5" y="136.5" width="75" height="41" as="geometry" />
        </mxCell>
        <mxCell id="L_YjPf033X-OpGffFkXy-19" value="" style="ellipse;whiteSpace=wrap;html=1;aspect=fixed;" parent="1" vertex="1">
          <mxGeometry x="304.75" y="102.5" width="27" height="27" as="geometry" />
        </mxCell>
        <mxCell id="L_YjPf033X-OpGffFkXy-20" value="&lt;div&gt;Pasta&lt;/div&gt;&lt;div&gt;de Almendra&lt;br&gt;&lt;/div&gt;" style="text;html=1;align=center;verticalAlign=middle;resizable=0;points=[];autosize=1;strokeColor=none;fillColor=none;fontSize=12;" parent="1" vertex="1">
          <mxGeometry x="275.75" y="135.5" width="86" height="41" as="geometry" />
        </mxCell>
        <mxCell id="L_YjPf033X-OpGffFkXy-21" value="" style="ellipse;whiteSpace=wrap;html=1;aspect=fixed;" parent="1" vertex="1">
          <mxGeometry x="373.75" y="102.5" width="27" height="27" as="geometry" />
        </mxCell>
        <mxCell id="L_YjPf033X-OpGffFkXy-22" value="&lt;div&gt;Pasta&lt;/div&gt;&lt;div&gt;de Coco&lt;br&gt;&lt;/div&gt;" style="text;html=1;align=center;verticalAlign=middle;resizable=0;points=[];autosize=1;strokeColor=none;fillColor=none;fontSize=12;" parent="1" vertex="1">
          <mxGeometry x="356.75" y="137.5" width="63" height="41" as="geometry" />
        </mxCell>
        <mxCell id="L_YjPf033X-OpGffFkXy-23" value="" style="ellipse;whiteSpace=wrap;html=1;aspect=fixed;" parent="1" vertex="1">
          <mxGeometry x="442.25" y="102.5" width="27" height="27" as="geometry" />
        </mxCell>
        <mxCell id="L_YjPf033X-OpGffFkXy-24" value="&lt;div&gt;Pasta&lt;/div&gt;&lt;div&gt;de Almendra &lt;br&gt;&lt;/div&gt;&lt;div&gt;y Chañar&lt;br&gt;&lt;/div&gt;" style="text;html=1;align=center;verticalAlign=middle;resizable=0;points=[];autosize=1;strokeColor=none;fillColor=none;fontSize=12;" parent="1" vertex="1">
          <mxGeometry x="414.25" y="130.5" width="86" height="55" as="geometry" />
        </mxCell>
        <mxCell id="L_YjPf033X-OpGffFkXy-27" value="" style="ellipse;whiteSpace=wrap;html=1;aspect=fixed;" parent="1" vertex="1">
          <mxGeometry x="-442" y="115" width="27" height="27" as="geometry" />
        </mxCell>
        <mxCell id="L_YjPf033X-OpGffFkXy-28" value="&lt;div&gt;Maní &lt;br&gt;&lt;/div&gt;&lt;div&gt;y Cacao&lt;br&gt;&lt;/div&gt;" style="text;html=1;align=center;verticalAlign=middle;resizable=0;points=[];autosize=1;strokeColor=none;fillColor=none;fontSize=12;" parent="1" vertex="1">
          <mxGeometry x="-458.5" y="143" width="62" height="41" as="geometry" />
        </mxCell>
        <mxCell id="L_YjPf033X-OpGffFkXy-29" value="" style="ellipse;whiteSpace=wrap;html=1;aspect=fixed;" parent="1" vertex="1">
          <mxGeometry x="-372" y="115" width="27" height="27" as="geometry" />
        </mxCell>
        <mxCell id="L_YjPf033X-OpGffFkXy-30" value="Coco" style="text;html=1;align=center;verticalAlign=middle;resizable=0;points=[];autosize=1;strokeColor=none;fillColor=none;fontSize=12;" parent="1" vertex="1">
          <mxGeometry x="-380.5" y="151" width="46" height="26" as="geometry" />
        </mxCell>
        <mxCell id="L_YjPf033X-OpGffFkXy-31" value="" style="ellipse;whiteSpace=wrap;html=1;aspect=fixed;" parent="1" vertex="1">
          <mxGeometry x="-301" y="115" width="27" height="27" as="geometry" />
        </mxCell>
        <mxCell id="L_YjPf033X-OpGffFkXy-32" value="Almendra" style="text;html=1;align=center;verticalAlign=middle;resizable=0;points=[];autosize=1;strokeColor=none;fillColor=none;fontSize=12;" parent="1" vertex="1">
          <mxGeometry x="-320.5" y="151" width="69" height="26" as="geometry" />
        </mxCell>
        <mxCell id="L_YjPf033X-OpGffFkXy-33" style="edgeStyle=orthogonalEdgeStyle;rounded=0;orthogonalLoop=1;jettySize=auto;html=1;exitX=1;exitY=0.5;exitDx=0;exitDy=0;entryX=0;entryY=0.5;entryDx=0;entryDy=0;fontSize=12;startSize=8;endSize=8;" parent="1" source="Qv3d4LhTkvHDMVTxzrqH-2" target="Qv3d4LhTkvHDMVTxzrqH-3" edge="1">
          <mxGeometry relative="1" as="geometry">
            <mxPoint x="194" y="-214" as="sourcePoint" />
            <mxPoint x="774" y="-214" as="targetPoint" />
          </mxGeometry>
        </mxCell>
        <mxCell id="L_YjPf033X-OpGffFkXy-34" value="INSUMO" style="edgeLabel;html=1;align=center;verticalAlign=middle;resizable=0;points=[];fontSize=12;" parent="L_YjPf033X-OpGffFkXy-33" vertex="1" connectable="0">
          <mxGeometry x="-0.0134" y="1" relative="1" as="geometry">
            <mxPoint x="-25" y="1" as="offset" />
          </mxGeometry>
        </mxCell>
        <mxCell id="L_YjPf033X-OpGffFkXy-219" style="edgeStyle=orthogonalEdgeStyle;rounded=0;orthogonalLoop=1;jettySize=auto;html=1;exitX=0.5;exitY=0;exitDx=0;exitDy=0;entryX=0;entryY=0.5;entryDx=0;entryDy=0;fontSize=12;startSize=8;endSize=8;" parent="1" source="L_YjPf033X-OpGffFkXy-35" target="L_YjPf033X-OpGffFkXy-170" edge="1">
          <mxGeometry relative="1" as="geometry" />
        </mxCell>
        <mxCell id="L_YjPf033X-OpGffFkXy-35" value="Envase" style="rounded=0;whiteSpace=wrap;html=1;dashed=1;" parent="1" vertex="1">
          <mxGeometry x="-779" y="-508" width="106" height="45" as="geometry" />
        </mxCell>
        <mxCell id="L_YjPf033X-OpGffFkXy-103" style="edgeStyle=orthogonalEdgeStyle;rounded=0;orthogonalLoop=1;jettySize=auto;html=1;exitX=1;exitY=0.5;exitDx=0;exitDy=0;entryX=1;entryY=0.5;entryDx=0;entryDy=0;fontSize=12;startSize=8;endSize=8;" parent="1" source="L_YjPf033X-OpGffFkXy-36" target="L_YjPf033X-OpGffFkXy-102" edge="1">
          <mxGeometry relative="1" as="geometry">
            <Array as="points">
              <mxPoint x="915" y="-549" />
              <mxPoint x="915" y="-262" />
            </Array>
          </mxGeometry>
        </mxCell>
        <mxCell id="L_YjPf033X-OpGffFkXy-104" value="ENCARGADO" style="edgeLabel;html=1;align=center;verticalAlign=middle;resizable=0;points=[];fontSize=12;" parent="L_YjPf033X-OpGffFkXy-103" vertex="1" connectable="0">
          <mxGeometry x="0.0282" y="2" relative="1" as="geometry">
            <mxPoint x="-2" y="87" as="offset" />
          </mxGeometry>
        </mxCell>
        <mxCell id="L_YjPf033X-OpGffFkXy-136" style="edgeStyle=orthogonalEdgeStyle;rounded=0;orthogonalLoop=1;jettySize=auto;html=1;exitX=0;exitY=0.25;exitDx=0;exitDy=0;entryX=0;entryY=0.5;entryDx=0;entryDy=0;fontSize=12;startSize=8;endSize=8;" parent="1" source="L_YjPf033X-OpGffFkXy-36" target="L_YjPf033X-OpGffFkXy-133" edge="1">
          <mxGeometry relative="1" as="geometry">
            <Array as="points">
              <mxPoint x="473" y="-560" />
              <mxPoint x="473" y="-795" />
            </Array>
          </mxGeometry>
        </mxCell>
        <mxCell id="L_YjPf033X-OpGffFkXy-137" value="SOPORTE" style="edgeLabel;html=1;align=center;verticalAlign=middle;resizable=0;points=[];fontSize=12;" parent="L_YjPf033X-OpGffFkXy-136" vertex="1" connectable="0">
          <mxGeometry x="0.5154" y="2" relative="1" as="geometry">
            <mxPoint x="-44" y="113" as="offset" />
          </mxGeometry>
        </mxCell>
        <mxCell id="L_YjPf033X-OpGffFkXy-36" value="Tarea" style="rounded=0;whiteSpace=wrap;html=1;" parent="1" vertex="1">
          <mxGeometry x="673.5" y="-571" width="174" height="44" as="geometry" />
        </mxCell>
        <mxCell id="L_YjPf033X-OpGffFkXy-56" style="edgeStyle=orthogonalEdgeStyle;rounded=0;orthogonalLoop=1;jettySize=auto;html=1;exitX=0;exitY=0.5;exitDx=0;exitDy=0;entryX=0.5;entryY=1;entryDx=0;entryDy=0;fontSize=12;startSize=8;endSize=8;" parent="1" source="Qv3d4LhTkvHDMVTxzrqH-2" target="L_YjPf033X-OpGffFkXy-35" edge="1">
          <mxGeometry relative="1" as="geometry">
            <mxPoint x="-384" y="-212" as="sourcePoint" />
            <mxPoint x="7" y="-214" as="targetPoint" />
          </mxGeometry>
        </mxCell>
        <mxCell id="L_YjPf033X-OpGffFkXy-57" value="INSUMO" style="edgeLabel;html=1;align=center;verticalAlign=middle;resizable=0;points=[];fontSize=12;" parent="L_YjPf033X-OpGffFkXy-56" vertex="1" connectable="0">
          <mxGeometry x="-0.0134" y="1" relative="1" as="geometry">
            <mxPoint x="1" y="-150" as="offset" />
          </mxGeometry>
        </mxCell>
        <mxCell id="L_YjPf033X-OpGffFkXy-65" value="" style="ellipse;whiteSpace=wrap;html=1;aspect=fixed;" parent="1" vertex="1">
          <mxGeometry x="235.25" y="102.5" width="27" height="27" as="geometry" />
        </mxCell>
        <mxCell id="L_YjPf033X-OpGffFkXy-66" value="&lt;div&gt;Almendra&lt;/div&gt;&lt;div&gt;Tostada&lt;br&gt;&lt;/div&gt;" style="text;html=1;align=center;verticalAlign=middle;resizable=0;points=[];autosize=1;strokeColor=none;fillColor=none;fontSize=12;" parent="1" vertex="1">
          <mxGeometry x="215.25" y="137.5" width="69" height="41" as="geometry" />
        </mxCell>
        <mxCell id="L_YjPf033X-OpGffFkXy-69" value="" style="ellipse;whiteSpace=wrap;html=1;aspect=fixed;" parent="1" vertex="1">
          <mxGeometry x="659" y="-508" width="27" height="27" as="geometry" />
        </mxCell>
        <mxCell id="L_YjPf033X-OpGffFkXy-70" value="&lt;div&gt;Elaboración&lt;/div&gt;&lt;div&gt;de Bases&lt;br&gt;&lt;/div&gt;" style="text;html=1;align=center;verticalAlign=middle;resizable=0;points=[];autosize=1;strokeColor=none;fillColor=none;fontSize=12;" parent="1" vertex="1">
          <mxGeometry x="632.5" y="-480" width="81" height="41" as="geometry" />
        </mxCell>
        <mxCell id="L_YjPf033X-OpGffFkXy-71" value="" style="ellipse;whiteSpace=wrap;html=1;aspect=fixed;" parent="1" vertex="1">
          <mxGeometry x="748" y="-508" width="27" height="27" as="geometry" />
        </mxCell>
        <mxCell id="L_YjPf033X-OpGffFkXy-72" value="&lt;div&gt;Elaboración&lt;/div&gt;&lt;div&gt;de Mix&lt;br&gt;&lt;/div&gt;" style="text;html=1;align=center;verticalAlign=middle;resizable=0;points=[];autosize=1;strokeColor=none;fillColor=none;fontSize=12;" parent="1" vertex="1">
          <mxGeometry x="721.5" y="-480" width="81" height="41" as="geometry" />
        </mxCell>
        <mxCell id="L_YjPf033X-OpGffFkXy-73" value="" style="ellipse;whiteSpace=wrap;html=1;aspect=fixed;" parent="1" vertex="1">
          <mxGeometry x="658" y="-428" width="27" height="27" as="geometry" />
        </mxCell>
        <mxCell id="L_YjPf033X-OpGffFkXy-74" value="&lt;div&gt;Fabricación, &lt;br&gt;&lt;/div&gt;&lt;div&gt;Envasado y&lt;/div&gt;&lt;div&gt;Almacenamiento&lt;/div&gt;" style="text;html=1;align=center;verticalAlign=middle;resizable=0;points=[];autosize=1;strokeColor=none;fillColor=none;fontSize=12;" parent="1" vertex="1">
          <mxGeometry x="618.5" y="-404" width="107" height="55" as="geometry" />
        </mxCell>
        <mxCell id="L_YjPf033X-OpGffFkXy-78" value="" style="ellipse;whiteSpace=wrap;html=1;aspect=fixed;" parent="1" vertex="1">
          <mxGeometry x="842" y="-508" width="27" height="27" as="geometry" />
        </mxCell>
        <mxCell id="L_YjPf033X-OpGffFkXy-79" value="&lt;div&gt;Elaboración&lt;/div&gt;&lt;div&gt;de Agregados&lt;br&gt;&lt;/div&gt;" style="text;html=1;align=center;verticalAlign=middle;resizable=0;points=[];autosize=1;strokeColor=none;fillColor=none;fontSize=12;" parent="1" vertex="1">
          <mxGeometry x="809.5" y="-480" width="93" height="41" as="geometry" />
        </mxCell>
        <mxCell id="L_YjPf033X-OpGffFkXy-81" value="" style="ellipse;whiteSpace=wrap;html=1;aspect=fixed;" parent="1" vertex="1">
          <mxGeometry x="750.5" y="-428" width="27" height="27" as="geometry" />
        </mxCell>
        <mxCell id="L_YjPf033X-OpGffFkXy-82" value="&lt;div&gt;Elaboración&lt;/div&gt;&lt;div&gt;de Pastas y&lt;/div&gt;&lt;div&gt;Chocolates&lt;br&gt;&lt;/div&gt;" style="text;html=1;align=center;verticalAlign=middle;resizable=0;points=[];autosize=1;strokeColor=none;fillColor=none;fontSize=12;" parent="1" vertex="1">
          <mxGeometry x="724" y="-404" width="81" height="55" as="geometry" />
        </mxCell>
        <mxCell id="L_YjPf033X-OpGffFkXy-83" value="" style="ellipse;whiteSpace=wrap;html=1;aspect=fixed;" parent="1" vertex="1">
          <mxGeometry x="841.5" y="-428" width="27" height="27" as="geometry" />
        </mxCell>
        <mxCell id="L_YjPf033X-OpGffFkXy-84" value="&lt;div&gt;Limpieza y&lt;/div&gt;&lt;div&gt;Desinfección&lt;br&gt;&lt;/div&gt;" style="text;html=1;align=center;verticalAlign=middle;resizable=0;points=[];autosize=1;strokeColor=none;fillColor=none;fontSize=12;" parent="1" vertex="1">
          <mxGeometry x="812" y="-400" width="87" height="41" as="geometry" />
        </mxCell>
        <mxCell id="L_YjPf033X-OpGffFkXy-102" value="Operario" style="rounded=0;whiteSpace=wrap;html=1;" parent="1" vertex="1">
          <mxGeometry x="680.74" y="-284" width="174" height="44" as="geometry" />
        </mxCell>
        <mxCell id="L_YjPf033X-OpGffFkXy-105" value="" style="ellipse;whiteSpace=wrap;html=1;aspect=fixed;" parent="1" vertex="1">
          <mxGeometry x="756.12" y="-211" width="27" height="27" as="geometry" />
        </mxCell>
        <mxCell id="L_YjPf033X-OpGffFkXy-106" value="Sol" style="text;html=1;align=center;verticalAlign=middle;resizable=0;points=[];autosize=1;strokeColor=none;fillColor=none;fontSize=12;" parent="1" vertex="1">
          <mxGeometry x="750.62" y="-176" width="35" height="26" as="geometry" />
        </mxCell>
        <mxCell id="L_YjPf033X-OpGffFkXy-107" value="" style="ellipse;whiteSpace=wrap;html=1;aspect=fixed;" parent="1" vertex="1">
          <mxGeometry x="687.12" y="-211" width="27" height="27" as="geometry" />
        </mxCell>
        <mxCell id="L_YjPf033X-OpGffFkXy-108" value="Juan" style="text;html=1;align=center;verticalAlign=middle;resizable=0;points=[];autosize=1;strokeColor=none;fillColor=none;fontSize=12;" parent="1" vertex="1">
          <mxGeometry x="677.62" y="-176" width="44" height="26" as="geometry" />
        </mxCell>
        <mxCell id="L_YjPf033X-OpGffFkXy-109" value="" style="ellipse;whiteSpace=wrap;html=1;aspect=fixed;" parent="1" vertex="1">
          <mxGeometry x="822.74" y="-211" width="27" height="27" as="geometry" />
        </mxCell>
        <mxCell id="L_YjPf033X-OpGffFkXy-110" value="Pedro" style="text;html=1;align=center;verticalAlign=middle;resizable=0;points=[];autosize=1;strokeColor=none;fillColor=none;fontSize=12;" parent="1" vertex="1">
          <mxGeometry x="811.24" y="-176" width="50" height="26" as="geometry" />
        </mxCell>
        <mxCell id="L_YjPf033X-OpGffFkXy-111" value="" style="shape=table;startSize=0;container=1;collapsible=0;childLayout=tableLayout;fillColor=#000000;strokeColor=#FFFFFF;fontColor=#FFFFFF;labelPosition=left;verticalLabelPosition=middle;align=right;verticalAlign=middle;" parent="1" vertex="1">
          <mxGeometry x="-953" y="-589" width="187" height="96.82" as="geometry" />
        </mxCell>
        <mxCell id="L_YjPf033X-OpGffFkXy-253" value="" style="shape=tableRow;horizontal=0;startSize=0;swimlaneHead=0;swimlaneBody=0;strokeColor=inherit;top=0;left=0;bottom=0;right=0;collapsible=0;dropTarget=0;fillColor=none;points=[[0,0.5],[1,0.5]];portConstraint=eastwest;fontColor=#FFFFFF;" parent="L_YjPf033X-OpGffFkXy-111" vertex="1">
          <mxGeometry width="187" height="36" as="geometry" />
        </mxCell>
        <mxCell id="L_YjPf033X-OpGffFkXy-254" value="&lt;font color=&quot;#ffffff&quot;&gt;nombre =&lt;br&gt;&lt;/font&gt;" style="shape=partialRectangle;html=1;whiteSpace=wrap;connectable=0;strokeColor=inherit;overflow=hidden;fillColor=none;top=0;left=0;bottom=0;right=0;pointerEvents=1;fontStyle=1;fontSize=12;" parent="L_YjPf033X-OpGffFkXy-253" vertex="1">
          <mxGeometry width="187" height="36" as="geometry">
            <mxRectangle width="187" height="36" as="alternateBounds" />
          </mxGeometry>
        </mxCell>
        <mxCell id="L_YjPf033X-OpGffFkXy-118" value="" style="shape=tableRow;horizontal=0;startSize=0;swimlaneHead=0;swimlaneBody=0;strokeColor=inherit;top=0;left=0;bottom=0;right=0;collapsible=0;dropTarget=0;fillColor=none;points=[[0,0.5],[1,0.5]];portConstraint=eastwest;fontColor=#FFFFFF;" parent="L_YjPf033X-OpGffFkXy-111" vertex="1">
          <mxGeometry y="36" width="187" height="61" as="geometry" />
        </mxCell>
        <mxCell id="L_YjPf033X-OpGffFkXy-119" value="&lt;div&gt;&lt;font color=&quot;#ffffff&quot;&gt;presentación =&amp;nbsp;&lt;/font&gt;&lt;/div&gt;&lt;div&gt;&lt;font color=&quot;#ffffff&quot;&gt;sobre / 360ml / 750ml /&lt;/font&gt;&lt;/div&gt;&lt;div&gt;&lt;font color=&quot;#ffffff&quot;&gt;&amp;nbsp;2kg / 250ml&lt;br&gt;&lt;/font&gt;&lt;/div&gt;" style="shape=partialRectangle;html=1;whiteSpace=wrap;connectable=0;strokeColor=inherit;overflow=hidden;fillColor=none;top=0;left=0;bottom=0;right=0;pointerEvents=1;fontStyle=1;fontSize=12;" parent="L_YjPf033X-OpGffFkXy-118" vertex="1">
          <mxGeometry width="187" height="61" as="geometry">
            <mxRectangle width="187" height="61" as="alternateBounds" />
          </mxGeometry>
        </mxCell>
        <mxCell id="L_YjPf033X-OpGffFkXy-122" value="" style="shape=table;startSize=0;container=1;collapsible=0;childLayout=tableLayout;fillColor=#000000;strokeColor=#FFFFFF;fontColor=#FFFFFF;labelPosition=left;verticalLabelPosition=middle;align=right;verticalAlign=middle;" parent="1" vertex="1">
          <mxGeometry x="-620" y="-138" width="90" height="29" as="geometry" />
        </mxCell>
        <mxCell id="XDq1gKsGRjvkehi91vJU-1" value="" style="shape=tableRow;horizontal=0;startSize=0;swimlaneHead=0;swimlaneBody=0;strokeColor=inherit;top=0;left=0;bottom=0;right=0;collapsible=0;dropTarget=0;fillColor=none;points=[[0,0.5],[1,0.5]];portConstraint=eastwest;" parent="L_YjPf033X-OpGffFkXy-122" vertex="1">
          <mxGeometry width="90" height="29" as="geometry" />
        </mxCell>
        <mxCell id="XDq1gKsGRjvkehi91vJU-2" value="&lt;font color=&quot;#ffffff&quot;&gt;fecha elab. =&lt;br&gt;&lt;/font&gt;" style="shape=partialRectangle;html=1;whiteSpace=wrap;connectable=0;strokeColor=inherit;overflow=hidden;fillColor=none;top=0;left=0;bottom=0;right=0;pointerEvents=1;fontStyle=1;fontSize=12;" parent="XDq1gKsGRjvkehi91vJU-1" vertex="1">
          <mxGeometry width="90" height="29" as="geometry">
            <mxRectangle width="90" height="29" as="alternateBounds" />
          </mxGeometry>
        </mxCell>
        <mxCell id="L_YjPf033X-OpGffFkXy-127" value="" style="shape=table;startSize=0;container=1;collapsible=0;childLayout=tableLayout;fillColor=#000000;strokeColor=#FFFFFF;fontColor=#FFFFFF;labelPosition=left;verticalLabelPosition=middle;align=right;verticalAlign=middle;" parent="1" vertex="1">
          <mxGeometry x="-756" y="24" width="111" height="29" as="geometry" />
        </mxCell>
        <mxCell id="tDOr0GZJXbc1pfqS6N4M-4" value="" style="shape=tableRow;horizontal=0;startSize=0;swimlaneHead=0;swimlaneBody=0;strokeColor=inherit;top=0;left=0;bottom=0;right=0;collapsible=0;dropTarget=0;fillColor=none;points=[[0,0.5],[1,0.5]];portConstraint=eastwest;" parent="L_YjPf033X-OpGffFkXy-127" vertex="1">
          <mxGeometry width="111" height="29" as="geometry" />
        </mxCell>
        <mxCell id="tDOr0GZJXbc1pfqS6N4M-5" value="&lt;font color=&quot;#ffffff&quot;&gt;presentación =&lt;br&gt;&lt;/font&gt;" style="shape=partialRectangle;html=1;whiteSpace=wrap;connectable=0;strokeColor=inherit;overflow=hidden;fillColor=none;top=0;left=0;bottom=0;right=0;pointerEvents=1;fontStyle=1;fontSize=12;" parent="tDOr0GZJXbc1pfqS6N4M-4" vertex="1">
          <mxGeometry width="111" height="29" as="geometry">
            <mxRectangle width="111" height="29" as="alternateBounds" />
          </mxGeometry>
        </mxCell>
        <mxCell id="L_YjPf033X-OpGffFkXy-227" style="edgeStyle=orthogonalEdgeStyle;rounded=0;orthogonalLoop=1;jettySize=auto;html=1;exitX=0.5;exitY=0;exitDx=0;exitDy=0;entryX=1;entryY=0.5;entryDx=0;entryDy=0;fontSize=12;startSize=8;endSize=8;" parent="1" source="L_YjPf033X-OpGffFkXy-133" target="L_YjPf033X-OpGffFkXy-170" edge="1">
          <mxGeometry relative="1" as="geometry" />
        </mxCell>
        <mxCell id="L_YjPf033X-OpGffFkXy-228" value="PROVEEDOR" style="edgeLabel;html=1;align=center;verticalAlign=middle;resizable=0;points=[];fontSize=12;" parent="L_YjPf033X-OpGffFkXy-227" vertex="1" connectable="0">
          <mxGeometry x="0.0779" y="-4" relative="1" as="geometry">
            <mxPoint y="3" as="offset" />
          </mxGeometry>
        </mxCell>
        <mxCell id="L_YjPf033X-OpGffFkXy-133" value="Máquina" style="rounded=0;whiteSpace=wrap;html=1;" parent="1" vertex="1">
          <mxGeometry x="670.44" y="-817.5" width="174" height="44" as="geometry" />
        </mxCell>
        <mxCell id="L_YjPf033X-OpGffFkXy-135" value="Etiqueta" style="rounded=0;whiteSpace=wrap;html=1;dashed=1;" parent="1" vertex="1">
          <mxGeometry x="-521" y="-508" width="106" height="45" as="geometry" />
        </mxCell>
        <mxCell id="L_YjPf033X-OpGffFkXy-141" value="" style="ellipse;whiteSpace=wrap;html=1;aspect=fixed;" parent="1" vertex="1">
          <mxGeometry x="625.5600000000001" y="-754.5" width="27" height="27" as="geometry" />
        </mxCell>
        <mxCell id="L_YjPf033X-OpGffFkXy-142" value="Mixer" style="text;html=1;align=center;verticalAlign=middle;resizable=0;points=[];autosize=1;strokeColor=none;fillColor=none;fontSize=12;" parent="1" vertex="1">
          <mxGeometry x="616.0600000000001" y="-719.5" width="47" height="26" as="geometry" />
        </mxCell>
        <mxCell id="L_YjPf033X-OpGffFkXy-146" value="" style="ellipse;whiteSpace=wrap;html=1;aspect=fixed;" parent="1" vertex="1">
          <mxGeometry x="695.44" y="-755.5" width="27" height="27" as="geometry" />
        </mxCell>
        <mxCell id="L_YjPf033X-OpGffFkXy-147" value="Fabricadora" style="text;html=1;align=center;verticalAlign=middle;resizable=0;points=[];autosize=1;strokeColor=none;fillColor=none;fontSize=12;" parent="1" vertex="1">
          <mxGeometry x="667.94" y="-719.5" width="82" height="26" as="geometry" />
        </mxCell>
        <mxCell id="L_YjPf033X-OpGffFkXy-148" value="" style="ellipse;whiteSpace=wrap;html=1;aspect=fixed;" parent="1" vertex="1">
          <mxGeometry x="775.44" y="-754.5" width="27" height="27" as="geometry" />
        </mxCell>
        <mxCell id="L_YjPf033X-OpGffFkXy-149" value="Emulsionador" style="text;html=1;align=center;verticalAlign=middle;resizable=0;points=[];autosize=1;strokeColor=none;fillColor=none;fontSize=12;" parent="1" vertex="1">
          <mxGeometry x="745.94" y="-719.5" width="91" height="26" as="geometry" />
        </mxCell>
        <mxCell id="L_YjPf033X-OpGffFkXy-151" value="" style="ellipse;whiteSpace=wrap;html=1;aspect=fixed;" parent="1" vertex="1">
          <mxGeometry x="854.44" y="-755.5" width="27" height="27" as="geometry" />
        </mxCell>
        <mxCell id="L_YjPf033X-OpGffFkXy-152" value="Abatidor" style="text;html=1;align=center;verticalAlign=middle;resizable=0;points=[];autosize=1;strokeColor=none;fillColor=none;fontSize=12;" parent="1" vertex="1">
          <mxGeometry x="836.94" y="-719.5" width="63" height="26" as="geometry" />
        </mxCell>
        <mxCell id="L_YjPf033X-OpGffFkXy-153" value="" style="ellipse;whiteSpace=wrap;html=1;aspect=fixed;" parent="1" vertex="1">
          <mxGeometry x="664.0600000000001" y="-677.5" width="27" height="27" as="geometry" />
        </mxCell>
        <mxCell id="L_YjPf033X-OpGffFkXy-154" value="Freezer" style="text;html=1;align=center;verticalAlign=middle;resizable=0;points=[];autosize=1;strokeColor=none;fillColor=none;fontSize=12;" parent="1" vertex="1">
          <mxGeometry x="648.5600000000001" y="-642.5" width="59" height="26" as="geometry" />
        </mxCell>
        <mxCell id="L_YjPf033X-OpGffFkXy-155" value="" style="ellipse;whiteSpace=wrap;html=1;aspect=fixed;" parent="1" vertex="1">
          <mxGeometry x="732.94" y="-677.5" width="27" height="27" as="geometry" />
        </mxCell>
        <mxCell id="L_YjPf033X-OpGffFkXy-156" value="Balanza" style="text;html=1;align=center;verticalAlign=middle;resizable=0;points=[];autosize=1;strokeColor=none;fillColor=none;fontSize=12;" parent="1" vertex="1">
          <mxGeometry x="716.44" y="-642.5" width="61" height="26" as="geometry" />
        </mxCell>
        <mxCell id="L_YjPf033X-OpGffFkXy-157" value="" style="ellipse;whiteSpace=wrap;html=1;aspect=fixed;" parent="1" vertex="1">
          <mxGeometry x="803.94" y="-677.5" width="27" height="27" as="geometry" />
        </mxCell>
        <mxCell id="L_YjPf033X-OpGffFkXy-158" value="Molino" style="text;html=1;align=center;verticalAlign=middle;resizable=0;points=[];autosize=1;strokeColor=none;fillColor=none;fontSize=12;" parent="1" vertex="1">
          <mxGeometry x="791.44" y="-642.5" width="53" height="26" as="geometry" />
        </mxCell>
        <mxCell id="L_YjPf033X-OpGffFkXy-159" value="" style="ellipse;whiteSpace=wrap;html=1;aspect=fixed;" parent="1" vertex="1">
          <mxGeometry x="871.0600000000001" y="-677.5" width="27" height="27" as="geometry" />
        </mxCell>
        <mxCell id="L_YjPf033X-OpGffFkXy-160" value="Exprimidor" style="text;html=1;align=center;verticalAlign=middle;resizable=0;points=[];autosize=1;strokeColor=none;fillColor=none;fontSize=12;" parent="1" vertex="1">
          <mxGeometry x="847.5600000000001" y="-642.5" width="75" height="26" as="geometry" />
        </mxCell>
        <mxCell id="L_YjPf033X-OpGffFkXy-163" value="" style="shape=table;startSize=0;container=1;collapsible=0;childLayout=tableLayout;fillColor=#000000;strokeColor=#FFFFFF;fontColor=#FFFFFF;labelPosition=left;verticalLabelPosition=middle;align=right;verticalAlign=middle;" parent="1" vertex="1">
          <mxGeometry x="-652" y="-568" width="142" height="71.83333333333371" as="geometry" />
        </mxCell>
        <mxCell id="tDOr0GZJXbc1pfqS6N4M-37" value="" style="shape=tableRow;horizontal=0;startSize=0;swimlaneHead=0;swimlaneBody=0;strokeColor=inherit;top=0;left=0;bottom=0;right=0;collapsible=0;dropTarget=0;fillColor=none;points=[[0,0.5],[1,0.5]];portConstraint=eastwest;" parent="L_YjPf033X-OpGffFkXy-163" vertex="1">
          <mxGeometry width="142" height="28" as="geometry" />
        </mxCell>
        <mxCell id="tDOr0GZJXbc1pfqS6N4M-38" value="&lt;font color=&quot;#ffffff&quot;&gt;nombre =&lt;br&gt;&lt;/font&gt;" style="shape=partialRectangle;html=1;whiteSpace=wrap;connectable=0;strokeColor=inherit;overflow=hidden;fillColor=none;top=0;left=0;bottom=0;right=0;pointerEvents=1;fontStyle=1;fontSize=12;" parent="tDOr0GZJXbc1pfqS6N4M-37" vertex="1">
          <mxGeometry width="142" height="28" as="geometry">
            <mxRectangle width="142" height="28" as="alternateBounds" />
          </mxGeometry>
        </mxCell>
        <mxCell id="L_YjPf033X-OpGffFkXy-164" value="" style="shape=tableRow;horizontal=0;startSize=0;swimlaneHead=0;swimlaneBody=0;strokeColor=inherit;top=0;left=0;bottom=0;right=0;collapsible=0;dropTarget=0;fillColor=none;points=[[0,0.5],[1,0.5]];portConstraint=eastwest;" parent="L_YjPf033X-OpGffFkXy-163" vertex="1">
          <mxGeometry y="28" width="142" height="44" as="geometry" />
        </mxCell>
        <mxCell id="L_YjPf033X-OpGffFkXy-165" value="&lt;font color=&quot;#ffffff&quot;&gt;tipo = &lt;br&gt;pote 360ml / torta / untable&lt;br&gt;&lt;/font&gt;" style="shape=partialRectangle;html=1;whiteSpace=wrap;connectable=0;strokeColor=inherit;overflow=hidden;fillColor=none;top=0;left=0;bottom=0;right=0;pointerEvents=1;fontStyle=1;fontSize=12;" parent="L_YjPf033X-OpGffFkXy-164" vertex="1">
          <mxGeometry width="142" height="44" as="geometry">
            <mxRectangle width="142" height="44" as="alternateBounds" />
          </mxGeometry>
        </mxCell>
        <mxCell id="L_YjPf033X-OpGffFkXy-170" value="Empresa" style="rounded=0;whiteSpace=wrap;html=1;" parent="1" vertex="1">
          <mxGeometry x="-174" y="-907" width="174" height="44" as="geometry" />
        </mxCell>
        <mxCell id="L_YjPf033X-OpGffFkXy-171" value="" style="ellipse;whiteSpace=wrap;html=1;aspect=fixed;" parent="1" vertex="1">
          <mxGeometry x="-217.5" y="-837.5" width="27" height="27" as="geometry" />
        </mxCell>
        <mxCell id="L_YjPf033X-OpGffFkXy-172" value="Barentz" style="text;html=1;align=center;verticalAlign=middle;resizable=0;points=[];autosize=1;strokeColor=none;fillColor=none;fontSize=12;" parent="1" vertex="1">
          <mxGeometry x="-233" y="-806.5" width="59" height="26" as="geometry" />
        </mxCell>
        <mxCell id="L_YjPf033X-OpGffFkXy-179" value="" style="ellipse;whiteSpace=wrap;html=1;aspect=fixed;" parent="1" vertex="1">
          <mxGeometry x="-148.5" y="-839.5" width="27" height="27" as="geometry" />
        </mxCell>
        <mxCell id="L_YjPf033X-OpGffFkXy-180" value="&lt;div&gt;Famiglia &lt;br&gt;&lt;/div&gt;&lt;div&gt;del Favero&lt;br&gt;&lt;/div&gt;" style="text;html=1;align=center;verticalAlign=middle;resizable=0;points=[];autosize=1;strokeColor=none;fillColor=none;fontSize=12;" parent="1" vertex="1">
          <mxGeometry x="-172" y="-811.5" width="75" height="41" as="geometry" />
        </mxCell>
        <mxCell id="L_YjPf033X-OpGffFkXy-181" value="" style="ellipse;whiteSpace=wrap;html=1;aspect=fixed;" parent="1" vertex="1">
          <mxGeometry x="-69.5" y="-839.5" width="27" height="27" as="geometry" />
        </mxCell>
        <mxCell id="L_YjPf033X-OpGffFkXy-182" value="&lt;div&gt;Ámbar &lt;br&gt;&lt;/div&gt;&lt;div&gt;Distribuidora&lt;br&gt;&lt;/div&gt;" style="text;html=1;align=center;verticalAlign=middle;resizable=0;points=[];autosize=1;strokeColor=none;fillColor=none;fontSize=12;" parent="1" vertex="1">
          <mxGeometry x="-98" y="-811.5" width="85" height="41" as="geometry" />
        </mxCell>
        <mxCell id="L_YjPf033X-OpGffFkXy-183" value="" style="ellipse;whiteSpace=wrap;html=1;aspect=fixed;" parent="1" vertex="1">
          <mxGeometry x="11.5" y="-839.5" width="27" height="27" as="geometry" />
        </mxCell>
        <mxCell id="L_YjPf033X-OpGffFkXy-184" value="AOMSA" style="text;html=1;align=center;verticalAlign=middle;resizable=0;points=[];autosize=1;strokeColor=none;fillColor=none;fontSize=12;" parent="1" vertex="1">
          <mxGeometry x="-5.5" y="-804.5" width="61" height="26" as="geometry" />
        </mxCell>
        <mxCell id="L_YjPf033X-OpGffFkXy-185" value="" style="ellipse;whiteSpace=wrap;html=1;aspect=fixed;" parent="1" vertex="1">
          <mxGeometry x="-217.5" y="-751" width="27" height="27" as="geometry" />
        </mxCell>
        <mxCell id="L_YjPf033X-OpGffFkXy-186" value="Fénix" style="text;html=1;align=center;verticalAlign=middle;resizable=0;points=[];autosize=1;strokeColor=none;fillColor=none;fontSize=12;" parent="1" vertex="1">
          <mxGeometry x="-227.5" y="-720" width="47" height="26" as="geometry" />
        </mxCell>
        <mxCell id="L_YjPf033X-OpGffFkXy-187" value="" style="ellipse;whiteSpace=wrap;html=1;aspect=fixed;" parent="1" vertex="1">
          <mxGeometry x="-148.5" y="-753" width="27" height="27" as="geometry" />
        </mxCell>
        <mxCell id="L_YjPf033X-OpGffFkXy-188" value="Especias&lt;br&gt;Indias" style="text;html=1;align=center;verticalAlign=middle;resizable=0;points=[];autosize=1;strokeColor=none;fillColor=none;fontSize=12;" parent="1" vertex="1">
          <mxGeometry x="-168.5" y="-724" width="67" height="41" as="geometry" />
        </mxCell>
        <mxCell id="L_YjPf033X-OpGffFkXy-190" value="" style="ellipse;whiteSpace=wrap;html=1;aspect=fixed;" parent="1" vertex="1">
          <mxGeometry x="-69.5" y="-753" width="27" height="27" as="geometry" />
        </mxCell>
        <mxCell id="L_YjPf033X-OpGffFkXy-191" value="Descartables&lt;br&gt;Navidad" style="text;html=1;align=center;verticalAlign=middle;resizable=0;points=[];autosize=1;strokeColor=none;fillColor=none;fontSize=12;" parent="1" vertex="1">
          <mxGeometry x="-99.5" y="-724" width="88" height="41" as="geometry" />
        </mxCell>
        <mxCell id="L_YjPf033X-OpGffFkXy-192" value="" style="ellipse;whiteSpace=wrap;html=1;aspect=fixed;" parent="1" vertex="1">
          <mxGeometry x="11.5" y="-752.5" width="27" height="27" as="geometry" />
        </mxCell>
        <mxCell id="L_YjPf033X-OpGffFkXy-193" value="&lt;div&gt;Especias&lt;/div&gt;&lt;div&gt;Rafael Cano&lt;br&gt;&lt;/div&gt;" style="text;html=1;align=center;verticalAlign=middle;resizable=0;points=[];autosize=1;strokeColor=none;fillColor=none;fontSize=12;" parent="1" vertex="1">
          <mxGeometry x="-17.5" y="-725.5" width="85" height="41" as="geometry" />
        </mxCell>
        <mxCell id="L_YjPf033X-OpGffFkXy-205" value="" style="ellipse;whiteSpace=wrap;html=1;aspect=fixed;" parent="1" vertex="1">
          <mxGeometry x="-217.5" y="-673" width="27" height="27" as="geometry" />
        </mxCell>
        <mxCell id="L_YjPf033X-OpGffFkXy-206" value="Prodeman" style="text;html=1;align=center;verticalAlign=middle;resizable=0;points=[];autosize=1;strokeColor=none;fillColor=none;fontSize=12;" parent="1" vertex="1">
          <mxGeometry x="-240.5" y="-638" width="73" height="26" as="geometry" />
        </mxCell>
        <mxCell id="L_YjPf033X-OpGffFkXy-207" value="" style="ellipse;whiteSpace=wrap;html=1;aspect=fixed;" parent="1" vertex="1">
          <mxGeometry x="-147" y="-675" width="27" height="27" as="geometry" />
        </mxCell>
        <mxCell id="L_YjPf033X-OpGffFkXy-208" value="&lt;div&gt;Fresh &lt;br&gt;&lt;/div&gt;&lt;div&gt;Congelados&lt;br&gt;&lt;/div&gt;" style="text;html=1;align=center;verticalAlign=middle;resizable=0;points=[];autosize=1;strokeColor=none;fillColor=none;fontSize=12;" parent="1" vertex="1">
          <mxGeometry x="-174" y="-646" width="82" height="41" as="geometry" />
        </mxCell>
        <mxCell id="L_YjPf033X-OpGffFkXy-210" value="" style="ellipse;whiteSpace=wrap;html=1;aspect=fixed;" parent="1" vertex="1">
          <mxGeometry x="652.5" y="185.5" width="27" height="27" as="geometry" />
        </mxCell>
        <mxCell id="L_YjPf033X-OpGffFkXy-211" value="Limón" style="text;html=1;align=center;verticalAlign=middle;resizable=0;points=[];autosize=1;strokeColor=none;fillColor=none;fontSize=12;" parent="1" vertex="1">
          <mxGeometry x="640.5" y="218" width="51" height="26" as="geometry" />
        </mxCell>
        <mxCell id="L_YjPf033X-OpGffFkXy-212" value="" style="ellipse;whiteSpace=wrap;html=1;aspect=fixed;" parent="1" vertex="1">
          <mxGeometry x="712.3799999999999" y="185.5" width="27" height="27" as="geometry" />
        </mxCell>
        <mxCell id="L_YjPf033X-OpGffFkXy-213" value="Banana" style="text;html=1;align=center;verticalAlign=middle;resizable=0;points=[];autosize=1;strokeColor=none;fillColor=none;fontSize=12;" parent="1" vertex="1">
          <mxGeometry x="695.8799999999999" y="218" width="59" height="26" as="geometry" />
        </mxCell>
        <mxCell id="L_YjPf033X-OpGffFkXy-214" value="" style="shape=table;startSize=0;container=1;collapsible=0;childLayout=tableLayout;fillColor=#000000;strokeColor=#FFFFFF;fontColor=#FFFFFF;labelPosition=left;verticalLabelPosition=middle;align=right;verticalAlign=middle;" parent="1" vertex="1">
          <mxGeometry x="-251" y="-956" width="90" height="58" as="geometry" />
        </mxCell>
        <mxCell id="tDOr0GZJXbc1pfqS6N4M-41" value="" style="shape=tableRow;horizontal=0;startSize=0;swimlaneHead=0;swimlaneBody=0;strokeColor=inherit;top=0;left=0;bottom=0;right=0;collapsible=0;dropTarget=0;fillColor=none;points=[[0,0.5],[1,0.5]];portConstraint=eastwest;" parent="L_YjPf033X-OpGffFkXy-214" vertex="1">
          <mxGeometry width="90" height="29" as="geometry" />
        </mxCell>
        <mxCell id="tDOr0GZJXbc1pfqS6N4M-42" value="&lt;font color=&quot;#ffffff&quot;&gt;nombre =&lt;br&gt;&lt;/font&gt;" style="shape=partialRectangle;html=1;whiteSpace=wrap;connectable=0;strokeColor=inherit;overflow=hidden;fillColor=none;top=0;left=0;bottom=0;right=0;pointerEvents=1;fontStyle=1;fontSize=12;" parent="tDOr0GZJXbc1pfqS6N4M-41" vertex="1">
          <mxGeometry width="90" height="29" as="geometry">
            <mxRectangle width="90" height="29" as="alternateBounds" />
          </mxGeometry>
        </mxCell>
        <mxCell id="L_YjPf033X-OpGffFkXy-217" value="" style="shape=tableRow;horizontal=0;startSize=0;swimlaneHead=0;swimlaneBody=0;strokeColor=inherit;top=0;left=0;bottom=0;right=0;collapsible=0;dropTarget=0;fillColor=none;points=[[0,0.5],[1,0.5]];portConstraint=eastwest;" parent="L_YjPf033X-OpGffFkXy-214" vertex="1">
          <mxGeometry y="29" width="90" height="29" as="geometry" />
        </mxCell>
        <mxCell id="L_YjPf033X-OpGffFkXy-218" value="&lt;font color=&quot;#ffffff&quot;&gt;teléfono =&lt;br&gt;&lt;/font&gt;" style="shape=partialRectangle;html=1;whiteSpace=wrap;connectable=0;strokeColor=inherit;overflow=hidden;fillColor=none;top=0;left=0;bottom=0;right=0;pointerEvents=1;fontStyle=1;fontSize=12;" parent="L_YjPf033X-OpGffFkXy-217" vertex="1">
          <mxGeometry width="90" height="29" as="geometry">
            <mxRectangle width="90" height="29" as="alternateBounds" />
          </mxGeometry>
        </mxCell>
        <mxCell id="L_YjPf033X-OpGffFkXy-221" value="" style="ellipse;whiteSpace=wrap;html=1;aspect=fixed;" parent="1" vertex="1">
          <mxGeometry x="-69.5" y="-673" width="27" height="27" as="geometry" />
        </mxCell>
        <mxCell id="L_YjPf033X-OpGffFkXy-222" value="&lt;div&gt;INCA&lt;/div&gt;&lt;div&gt;Editorial&lt;br&gt;&lt;/div&gt;" style="text;html=1;align=center;verticalAlign=middle;resizable=0;points=[];autosize=1;strokeColor=none;fillColor=none;fontSize=12;" parent="1" vertex="1">
          <mxGeometry x="-85.5" y="-644" width="61" height="41" as="geometry" />
        </mxCell>
        <mxCell id="L_YjPf033X-OpGffFkXy-223" style="edgeStyle=orthogonalEdgeStyle;rounded=0;orthogonalLoop=1;jettySize=auto;html=1;exitX=0.5;exitY=0;exitDx=0;exitDy=0;entryX=0;entryY=0.5;entryDx=0;entryDy=0;fontSize=12;startSize=8;endSize=8;" parent="1" source="L_YjPf033X-OpGffFkXy-135" target="L_YjPf033X-OpGffFkXy-170" edge="1">
          <mxGeometry relative="1" as="geometry" />
        </mxCell>
        <mxCell id="L_YjPf033X-OpGffFkXy-224" value="PROVEEDOR" style="edgeLabel;html=1;align=center;verticalAlign=middle;resizable=0;points=[];fontSize=12;" parent="L_YjPf033X-OpGffFkXy-223" vertex="1" connectable="0">
          <mxGeometry x="0.506" y="2" relative="1" as="geometry">
            <mxPoint y="2" as="offset" />
          </mxGeometry>
        </mxCell>
        <mxCell id="L_YjPf033X-OpGffFkXy-225" value="" style="ellipse;whiteSpace=wrap;html=1;aspect=fixed;" parent="1" vertex="1">
          <mxGeometry x="10.5" y="-675" width="27" height="27" as="geometry" />
        </mxCell>
        <mxCell id="L_YjPf033X-OpGffFkXy-226" value="Gerplast" style="text;html=1;align=center;verticalAlign=middle;resizable=0;points=[];autosize=1;strokeColor=none;fillColor=none;fontSize=12;" parent="1" vertex="1">
          <mxGeometry x="-8.5" y="-640" width="63" height="26" as="geometry" />
        </mxCell>
        <mxCell id="L_YjPf033X-OpGffFkXy-230" value="" style="shape=table;startSize=0;container=1;collapsible=0;childLayout=tableLayout;fillColor=#000000;strokeColor=#FFFFFF;fontColor=#FFFFFF;labelPosition=left;verticalLabelPosition=middle;align=right;verticalAlign=middle;" parent="1" vertex="1">
          <mxGeometry x="795.94" y="-858.5" width="141" height="58" as="geometry" />
        </mxCell>
        <mxCell id="L_YjPf033X-OpGffFkXy-231" value="" style="shape=tableRow;horizontal=0;startSize=0;swimlaneHead=0;swimlaneBody=0;strokeColor=inherit;top=0;left=0;bottom=0;right=0;collapsible=0;dropTarget=0;fillColor=none;points=[[0,0.5],[1,0.5]];portConstraint=eastwest;" parent="L_YjPf033X-OpGffFkXy-230" vertex="1">
          <mxGeometry width="141" height="29" as="geometry" />
        </mxCell>
        <mxCell id="L_YjPf033X-OpGffFkXy-232" value="&lt;font color=&quot;#ffffff&quot;&gt;nombre =&lt;br&gt;&lt;/font&gt;" style="shape=partialRectangle;html=1;whiteSpace=wrap;connectable=0;strokeColor=inherit;overflow=hidden;fillColor=none;top=0;left=0;bottom=0;right=0;pointerEvents=1;fontStyle=1;fontSize=12;" parent="L_YjPf033X-OpGffFkXy-231" vertex="1">
          <mxGeometry width="141" height="29" as="geometry">
            <mxRectangle width="141" height="29" as="alternateBounds" />
          </mxGeometry>
        </mxCell>
        <mxCell id="tDOr0GZJXbc1pfqS6N4M-39" value="" style="shape=tableRow;horizontal=0;startSize=0;swimlaneHead=0;swimlaneBody=0;strokeColor=inherit;top=0;left=0;bottom=0;right=0;collapsible=0;dropTarget=0;fillColor=none;points=[[0,0.5],[1,0.5]];portConstraint=eastwest;" parent="L_YjPf033X-OpGffFkXy-230" vertex="1">
          <mxGeometry y="29" width="141" height="29" as="geometry" />
        </mxCell>
        <mxCell id="tDOr0GZJXbc1pfqS6N4M-40" value="&lt;font color=&quot;#ffffff&quot;&gt;fecha ult. mant. =&lt;br&gt;&lt;/font&gt;" style="shape=partialRectangle;html=1;whiteSpace=wrap;connectable=0;strokeColor=inherit;overflow=hidden;fillColor=none;top=0;left=0;bottom=0;right=0;pointerEvents=1;fontStyle=1;fontSize=12;" parent="tDOr0GZJXbc1pfqS6N4M-39" vertex="1">
          <mxGeometry width="141" height="29" as="geometry">
            <mxRectangle width="141" height="29" as="alternateBounds" />
          </mxGeometry>
        </mxCell>
        <mxCell id="L_YjPf033X-OpGffFkXy-275" value="" style="shape=table;startSize=0;container=1;collapsible=0;childLayout=tableLayout;fillColor=#000000;strokeColor=#FFFFFF;fontColor=#FFFFFF;labelPosition=left;verticalLabelPosition=middle;align=right;verticalAlign=middle;" parent="1" vertex="1">
          <mxGeometry x="785" y="-594" width="90" height="29" as="geometry" />
        </mxCell>
        <mxCell id="L_YjPf033X-OpGffFkXy-276" value="" style="shape=tableRow;horizontal=0;startSize=0;swimlaneHead=0;swimlaneBody=0;strokeColor=inherit;top=0;left=0;bottom=0;right=0;collapsible=0;dropTarget=0;fillColor=none;points=[[0,0.5],[1,0.5]];portConstraint=eastwest;" parent="L_YjPf033X-OpGffFkXy-275" vertex="1">
          <mxGeometry width="90" height="29" as="geometry" />
        </mxCell>
        <mxCell id="L_YjPf033X-OpGffFkXy-277" value="&lt;font color=&quot;#ffffff&quot;&gt;nombre =&lt;br&gt;&lt;/font&gt;" style="shape=partialRectangle;html=1;whiteSpace=wrap;connectable=0;strokeColor=inherit;overflow=hidden;fillColor=none;top=0;left=0;bottom=0;right=0;pointerEvents=1;fontStyle=1;fontSize=12;" parent="L_YjPf033X-OpGffFkXy-276" vertex="1">
          <mxGeometry width="90" height="29" as="geometry">
            <mxRectangle width="90" height="29" as="alternateBounds" />
          </mxGeometry>
        </mxCell>
        <mxCell id="L_YjPf033X-OpGffFkXy-278" value="" style="shape=table;startSize=0;container=1;collapsible=0;childLayout=tableLayout;fillColor=#000000;strokeColor=#FFFFFF;fontColor=#FFFFFF;labelPosition=left;verticalLabelPosition=middle;align=right;verticalAlign=middle;" parent="1" vertex="1">
          <mxGeometry x="589.5" y="-322" width="116" height="58" as="geometry" />
        </mxCell>
        <mxCell id="L_YjPf033X-OpGffFkXy-279" value="" style="shape=tableRow;horizontal=0;startSize=0;swimlaneHead=0;swimlaneBody=0;strokeColor=inherit;top=0;left=0;bottom=0;right=0;collapsible=0;dropTarget=0;fillColor=none;points=[[0,0.5],[1,0.5]];portConstraint=eastwest;" parent="L_YjPf033X-OpGffFkXy-278" vertex="1">
          <mxGeometry width="116" height="29" as="geometry" />
        </mxCell>
        <mxCell id="L_YjPf033X-OpGffFkXy-280" value="&lt;font color=&quot;#ffffff&quot;&gt;nombre =&lt;br&gt;&lt;/font&gt;" style="shape=partialRectangle;html=1;whiteSpace=wrap;connectable=0;strokeColor=inherit;overflow=hidden;fillColor=none;top=0;left=0;bottom=0;right=0;pointerEvents=1;fontStyle=1;fontSize=12;" parent="L_YjPf033X-OpGffFkXy-279" vertex="1">
          <mxGeometry width="116" height="29" as="geometry">
            <mxRectangle width="116" height="29" as="alternateBounds" />
          </mxGeometry>
        </mxCell>
        <mxCell id="L_YjPf033X-OpGffFkXy-289" value="" style="shape=tableRow;horizontal=0;startSize=0;swimlaneHead=0;swimlaneBody=0;strokeColor=inherit;top=0;left=0;bottom=0;right=0;collapsible=0;dropTarget=0;fillColor=none;points=[[0,0.5],[1,0.5]];portConstraint=eastwest;" parent="L_YjPf033X-OpGffFkXy-278" vertex="1">
          <mxGeometry y="29" width="116" height="29" as="geometry" />
        </mxCell>
        <mxCell id="L_YjPf033X-OpGffFkXy-290" value="&lt;font color=&quot;#ffffff&quot;&gt;fecha ingreso =&lt;br&gt;&lt;/font&gt;" style="shape=partialRectangle;html=1;whiteSpace=wrap;connectable=0;strokeColor=inherit;overflow=hidden;fillColor=none;top=0;left=0;bottom=0;right=0;pointerEvents=1;fontStyle=1;fontSize=12;" parent="L_YjPf033X-OpGffFkXy-289" vertex="1">
          <mxGeometry width="116" height="29" as="geometry">
            <mxRectangle width="116" height="29" as="alternateBounds" />
          </mxGeometry>
        </mxCell>
        <mxCell id="tDOr0GZJXbc1pfqS6N4M-7" value="" style="ellipse;whiteSpace=wrap;html=1;aspect=fixed;" parent="1" vertex="1">
          <mxGeometry x="203" y="-45" width="27" height="27" as="geometry" />
        </mxCell>
        <mxCell id="tDOr0GZJXbc1pfqS6N4M-8" value="&lt;div&gt;Base &lt;br&gt;&lt;/div&gt;&lt;div&gt;Dulce del Árbol&lt;br&gt;&lt;/div&gt;" style="text;html=1;align=center;verticalAlign=middle;resizable=0;points=[];autosize=1;strokeColor=none;fillColor=none;fontSize=12;" parent="1" vertex="1">
          <mxGeometry x="166.5" y="-17" width="99" height="41" as="geometry" />
        </mxCell>
        <mxCell id="tDOr0GZJXbc1pfqS6N4M-9" value="" style="ellipse;whiteSpace=wrap;html=1;aspect=fixed;" parent="1" vertex="1">
          <mxGeometry x="295.5" y="-45" width="27" height="27" as="geometry" />
        </mxCell>
        <mxCell id="tDOr0GZJXbc1pfqS6N4M-10" value="Base &lt;br&gt;Chocolate Negro" style="text;html=1;align=center;verticalAlign=middle;resizable=0;points=[];autosize=1;strokeColor=none;fillColor=none;fontSize=12;" parent="1" vertex="1">
          <mxGeometry x="256" y="-17" width="108" height="41" as="geometry" />
        </mxCell>
        <mxCell id="tDOr0GZJXbc1pfqS6N4M-11" value="" style="ellipse;whiteSpace=wrap;html=1;aspect=fixed;" parent="1" vertex="1">
          <mxGeometry x="398" y="-45" width="27" height="27" as="geometry" />
        </mxCell>
        <mxCell id="tDOr0GZJXbc1pfqS6N4M-12" value="Base &lt;br&gt;Chocolate Blanco" style="text;html=1;align=center;verticalAlign=middle;resizable=0;points=[];autosize=1;strokeColor=none;fillColor=none;fontSize=12;" parent="1" vertex="1">
          <mxGeometry x="356.5" y="-17" width="112" height="41" as="geometry" />
        </mxCell>
        <mxCell id="tDOr0GZJXbc1pfqS6N4M-13" value="" style="ellipse;whiteSpace=wrap;html=1;aspect=fixed;" parent="1" vertex="1">
          <mxGeometry x="75.5" y="-45" width="27" height="27" as="geometry" />
        </mxCell>
        <mxCell id="tDOr0GZJXbc1pfqS6N4M-14" value="&lt;div&gt;Base&amp;nbsp;&lt;/div&gt;&lt;div&gt;Frutal&lt;/div&gt;" style="text;html=1;align=center;verticalAlign=middle;resizable=0;points=[];autosize=1;strokeColor=none;fillColor=none;fontSize=12;" parent="1" vertex="1">
          <mxGeometry x="66" y="-17" width="49" height="41" as="geometry" />
        </mxCell>
        <mxCell id="tDOr0GZJXbc1pfqS6N4M-15" value="" style="ellipse;whiteSpace=wrap;html=1;aspect=fixed;" parent="1" vertex="1">
          <mxGeometry x="-9.5" y="28" width="27" height="27" as="geometry" />
        </mxCell>
        <mxCell id="tDOr0GZJXbc1pfqS6N4M-16" value="&lt;div&gt;Mix&lt;/div&gt;&lt;div&gt;Limón&lt;br&gt;&lt;/div&gt;" style="text;html=1;align=center;verticalAlign=middle;resizable=0;points=[];autosize=1;strokeColor=none;fillColor=none;fontSize=12;" parent="1" vertex="1">
          <mxGeometry x="-21" y="56" width="51" height="41" as="geometry" />
        </mxCell>
        <mxCell id="tDOr0GZJXbc1pfqS6N4M-17" value="" style="ellipse;whiteSpace=wrap;html=1;aspect=fixed;" parent="1" vertex="1">
          <mxGeometry x="40.75" y="27.5" width="27" height="27" as="geometry" />
        </mxCell>
        <mxCell id="tDOr0GZJXbc1pfqS6N4M-18" value="&lt;div&gt;Mix&lt;/div&gt;&lt;div&gt;Maracuyá&lt;br&gt;&lt;/div&gt;" style="text;html=1;align=center;verticalAlign=middle;resizable=0;points=[];autosize=1;strokeColor=none;fillColor=none;fontSize=12;" parent="1" vertex="1">
          <mxGeometry x="19.25" y="56.5" width="71" height="41" as="geometry" />
        </mxCell>
        <mxCell id="tDOr0GZJXbc1pfqS6N4M-20" value="" style="ellipse;whiteSpace=wrap;html=1;aspect=fixed;" parent="1" vertex="1">
          <mxGeometry x="149.75" y="28.5" width="27" height="27" as="geometry" />
        </mxCell>
        <mxCell id="tDOr0GZJXbc1pfqS6N4M-21" value="&lt;div&gt;Mix&lt;/div&gt;&lt;div&gt;Americana&lt;br&gt;&lt;/div&gt;" style="text;html=1;align=center;verticalAlign=middle;resizable=0;points=[];autosize=1;strokeColor=none;fillColor=none;fontSize=12;" parent="1" vertex="1">
          <mxGeometry x="126.25" y="57.5" width="75" height="41" as="geometry" />
        </mxCell>
        <mxCell id="tDOr0GZJXbc1pfqS6N4M-22" value="" style="ellipse;whiteSpace=wrap;html=1;aspect=fixed;" parent="1" vertex="1">
          <mxGeometry x="204.5" y="28.5" width="27" height="27" as="geometry" />
        </mxCell>
        <mxCell id="tDOr0GZJXbc1pfqS6N4M-23" value="&lt;div&gt;Mix&lt;/div&gt;&lt;div&gt;Vainilla&lt;br&gt;&lt;/div&gt;" style="text;html=1;align=center;verticalAlign=middle;resizable=0;points=[];autosize=1;strokeColor=none;fillColor=none;fontSize=12;" parent="1" vertex="1">
          <mxGeometry x="190" y="57.5" width="56" height="41" as="geometry" />
        </mxCell>
        <mxCell id="tDOr0GZJXbc1pfqS6N4M-24" value="" style="ellipse;whiteSpace=wrap;html=1;aspect=fixed;" parent="1" vertex="1">
          <mxGeometry x="254.75" y="28" width="27" height="27" as="geometry" />
        </mxCell>
        <mxCell id="tDOr0GZJXbc1pfqS6N4M-25" value="&lt;div&gt;Mix &lt;br&gt;&lt;/div&gt;&lt;div&gt;Menta&lt;br&gt;&lt;/div&gt;" style="text;html=1;align=center;verticalAlign=middle;resizable=0;points=[];autosize=1;strokeColor=none;fillColor=none;fontSize=12;" parent="1" vertex="1">
          <mxGeometry x="243.25" y="57" width="51" height="41" as="geometry" />
        </mxCell>
        <mxCell id="tDOr0GZJXbc1pfqS6N4M-26" value="" style="ellipse;whiteSpace=wrap;html=1;aspect=fixed;" parent="1" vertex="1">
          <mxGeometry x="300.5" y="28" width="27" height="27" as="geometry" />
        </mxCell>
        <mxCell id="tDOr0GZJXbc1pfqS6N4M-27" value="&lt;div&gt;Mix &lt;br&gt;&lt;/div&gt;&lt;div&gt;Banana&lt;br&gt;&lt;/div&gt;" style="text;html=1;align=center;verticalAlign=middle;resizable=0;points=[];autosize=1;strokeColor=none;fillColor=none;fontSize=12;" parent="1" vertex="1">
          <mxGeometry x="285" y="57" width="59" height="41" as="geometry" />
        </mxCell>
        <mxCell id="tDOr0GZJXbc1pfqS6N4M-28" value="" style="ellipse;whiteSpace=wrap;html=1;aspect=fixed;" parent="1" vertex="1">
          <mxGeometry x="28" y="-45" width="27" height="27" as="geometry" />
        </mxCell>
        <mxCell id="tDOr0GZJXbc1pfqS6N4M-29" value="&lt;div&gt;Base&amp;nbsp;&lt;/div&gt;&lt;div&gt;Coco&lt;/div&gt;" style="text;html=1;align=center;verticalAlign=middle;resizable=0;points=[];autosize=1;strokeColor=none;fillColor=none;fontSize=12;" parent="1" vertex="1">
          <mxGeometry x="18.5" y="-17" width="49" height="41" as="geometry" />
        </mxCell>
        <mxCell id="tDOr0GZJXbc1pfqS6N4M-30" value="&lt;div&gt;Mix &lt;br&gt;&lt;/div&gt;&lt;div&gt;Moka&lt;br&gt;&lt;/div&gt;" style="text;html=1;align=center;verticalAlign=middle;resizable=0;points=[];autosize=1;strokeColor=none;fillColor=none;fontSize=12;" parent="1" vertex="1">
          <mxGeometry x="337.5" y="57.5" width="47" height="41" as="geometry" />
        </mxCell>
        <mxCell id="tDOr0GZJXbc1pfqS6N4M-31" value="" style="ellipse;whiteSpace=wrap;html=1;aspect=fixed;" parent="1" vertex="1">
          <mxGeometry x="347" y="28.5" width="27" height="27" as="geometry" />
        </mxCell>
        <mxCell id="tDOr0GZJXbc1pfqS6N4M-33" value="&lt;div&gt;Mix &lt;br&gt;&lt;/div&gt;&lt;div&gt;DDA&lt;br&gt;&lt;/div&gt;" style="text;html=1;align=center;verticalAlign=middle;resizable=0;points=[];autosize=1;strokeColor=none;fillColor=none;fontSize=12;" parent="1" vertex="1">
          <mxGeometry x="382.5" y="56.5" width="43" height="41" as="geometry" />
        </mxCell>
        <mxCell id="tDOr0GZJXbc1pfqS6N4M-34" value="" style="ellipse;whiteSpace=wrap;html=1;aspect=fixed;" parent="1" vertex="1">
          <mxGeometry x="390" y="27.5" width="27" height="27" as="geometry" />
        </mxCell>
        <mxCell id="tDOr0GZJXbc1pfqS6N4M-35" value="&lt;div&gt;Mix &lt;br&gt;&lt;/div&gt;&lt;div&gt;Ch. Blanco&lt;br&gt;&lt;/div&gt;" style="text;html=1;align=center;verticalAlign=middle;resizable=0;points=[];autosize=1;strokeColor=none;fillColor=none;fontSize=12;" parent="1" vertex="1">
          <mxGeometry x="418.5" y="57" width="77" height="41" as="geometry" />
        </mxCell>
        <mxCell id="tDOr0GZJXbc1pfqS6N4M-36" value="" style="ellipse;whiteSpace=wrap;html=1;aspect=fixed;" parent="1" vertex="1">
          <mxGeometry x="443" y="28" width="27" height="27" as="geometry" />
        </mxCell>
        <mxCell id="tDOr0GZJXbc1pfqS6N4M-43" value="" style="ellipse;whiteSpace=wrap;html=1;aspect=fixed;" parent="1" vertex="1">
          <mxGeometry x="30.25" y="184" width="27" height="27" as="geometry" />
        </mxCell>
        <mxCell id="tDOr0GZJXbc1pfqS6N4M-44" value="Ganache" style="text;html=1;align=center;verticalAlign=middle;resizable=0;points=[];autosize=1;strokeColor=none;fillColor=none;fontSize=12;" parent="1" vertex="1">
          <mxGeometry x="10.75" y="219" width="67" height="26" as="geometry" />
        </mxCell>
        <mxCell id="tDOr0GZJXbc1pfqS6N4M-45" value="" style="ellipse;whiteSpace=wrap;html=1;aspect=fixed;" parent="1" vertex="1">
          <mxGeometry x="94.25" y="184" width="27" height="27" as="geometry" />
        </mxCell>
        <mxCell id="tDOr0GZJXbc1pfqS6N4M-46" value="&lt;div&gt;Nueces &lt;br&gt;&lt;/div&gt;&lt;div&gt;Cortadas&lt;br&gt;&lt;/div&gt;" style="text;html=1;align=center;verticalAlign=middle;resizable=0;points=[];autosize=1;strokeColor=none;fillColor=none;fontSize=12;" parent="1" vertex="1">
          <mxGeometry x="74.75" y="212" width="67" height="41" as="geometry" />
        </mxCell>
        <mxCell id="tDOr0GZJXbc1pfqS6N4M-47" value="" style="ellipse;whiteSpace=wrap;html=1;aspect=fixed;" parent="1" vertex="1">
          <mxGeometry x="596.9999999999999" y="186" width="27" height="27" as="geometry" />
        </mxCell>
        <mxCell id="tDOr0GZJXbc1pfqS6N4M-48" value="&lt;div&gt;Café&amp;nbsp;&lt;/div&gt;&lt;div&gt;Molido&lt;/div&gt;" style="text;html=1;align=center;verticalAlign=middle;resizable=0;points=[];autosize=1;strokeColor=none;fillColor=none;fontSize=12;" parent="1" vertex="1">
          <mxGeometry x="584.4999999999999" y="217" width="53" height="41" as="geometry" />
        </mxCell>
        <mxCell id="tDOr0GZJXbc1pfqS6N4M-49" value="" style="ellipse;whiteSpace=wrap;html=1;aspect=fixed;" parent="1" vertex="1">
          <mxGeometry x="165.75" y="184" width="27" height="27" as="geometry" />
        </mxCell>
        <mxCell id="tDOr0GZJXbc1pfqS6N4M-50" value="&lt;div&gt;Frutillas &lt;br&gt;&lt;/div&gt;&lt;div&gt;para Sembrar&lt;br&gt;&lt;/div&gt;" style="text;html=1;align=center;verticalAlign=middle;resizable=0;points=[];autosize=1;strokeColor=none;fillColor=none;fontSize=12;" parent="1" vertex="1">
          <mxGeometry x="134.25" y="212" width="91" height="41" as="geometry" />
        </mxCell>
        <mxCell id="tDOr0GZJXbc1pfqS6N4M-51" value="" style="ellipse;whiteSpace=wrap;html=1;aspect=fixed;" parent="1" vertex="1">
          <mxGeometry x="239.75" y="184" width="27" height="27" as="geometry" />
        </mxCell>
        <mxCell id="tDOr0GZJXbc1pfqS6N4M-52" value="&lt;div&gt;Base&lt;/div&gt;&lt;div&gt;para Torta&lt;br&gt;&lt;/div&gt;" style="text;html=1;align=center;verticalAlign=middle;resizable=0;points=[];autosize=1;strokeColor=none;fillColor=none;fontSize=12;" parent="1" vertex="1">
          <mxGeometry x="218.25" y="212" width="72" height="41" as="geometry" />
        </mxCell>
        <mxCell id="tDOr0GZJXbc1pfqS6N4M-53" value="" style="ellipse;whiteSpace=wrap;html=1;aspect=fixed;" parent="1" vertex="1">
          <mxGeometry x="310.5" y="184" width="27" height="27" as="geometry" />
        </mxCell>
        <mxCell id="tDOr0GZJXbc1pfqS6N4M-54" value="&lt;div&gt;Reducción&lt;/div&gt;&lt;div&gt;de Maracuyá&lt;br&gt;&lt;/div&gt;" style="text;html=1;align=center;verticalAlign=middle;resizable=0;points=[];autosize=1;strokeColor=none;fillColor=none;fontSize=12;" parent="1" vertex="1">
          <mxGeometry x="282" y="212" width="87" height="41" as="geometry" />
        </mxCell>
        <mxCell id="tDOr0GZJXbc1pfqS6N4M-55" value="&lt;div&gt;Pasta de&lt;/div&gt;&lt;div&gt;Maní y Cacao&lt;br&gt;&lt;/div&gt;" style="text;html=1;align=center;verticalAlign=middle;resizable=0;points=[];autosize=1;strokeColor=none;fillColor=none;fontSize=12;" parent="1" vertex="1">
          <mxGeometry x="360.25" y="213" width="92" height="41" as="geometry" />
        </mxCell>
        <mxCell id="tDOr0GZJXbc1pfqS6N4M-56" value="" style="ellipse;whiteSpace=wrap;html=1;aspect=fixed;" parent="1" vertex="1">
          <mxGeometry x="391.25" y="186" width="27" height="27" as="geometry" />
        </mxCell>
        <mxCell id="tDOr0GZJXbc1pfqS6N4M-57" value="" style="ellipse;whiteSpace=wrap;html=1;aspect=fixed;" parent="1" vertex="1">
          <mxGeometry x="602.5600000000001" y="-676.5" width="27" height="27" as="geometry" />
        </mxCell>
        <mxCell id="tDOr0GZJXbc1pfqS6N4M-58" value="Horno" style="text;html=1;align=center;verticalAlign=middle;resizable=0;points=[];autosize=1;strokeColor=none;fillColor=none;fontSize=12;" parent="1" vertex="1">
          <mxGeometry x="591.0600000000001" y="-643.5" width="51" height="26" as="geometry" />
        </mxCell>
        <mxCell id="tDOr0GZJXbc1pfqS6N4M-59" value="" style="ellipse;whiteSpace=wrap;html=1;aspect=fixed;" parent="1" vertex="1">
          <mxGeometry x="-347" y="-837.5" width="27" height="27" as="geometry" />
        </mxCell>
        <mxCell id="tDOr0GZJXbc1pfqS6N4M-60" value="De Raíz" style="text;html=1;align=center;verticalAlign=middle;resizable=0;points=[];autosize=1;strokeColor=none;fillColor=none;fontSize=12;" parent="1" vertex="1">
          <mxGeometry x="-364" y="-806.5" width="61" height="26" as="geometry" />
        </mxCell>
        <mxCell id="tDOr0GZJXbc1pfqS6N4M-67" value="" style="ellipse;whiteSpace=wrap;html=1;aspect=fixed;" parent="1" vertex="1">
          <mxGeometry x="-277.5" y="-837.5" width="27" height="27" as="geometry" />
        </mxCell>
        <mxCell id="tDOr0GZJXbc1pfqS6N4M-68" value="Verdulería" style="text;html=1;align=center;verticalAlign=middle;resizable=0;points=[];autosize=1;strokeColor=none;fillColor=none;fontSize=12;" parent="1" vertex="1">
          <mxGeometry x="-300.5" y="-806.5" width="73" height="26" as="geometry" />
        </mxCell>
        <mxCell id="tDOr0GZJXbc1pfqS6N4M-69" value="" style="ellipse;whiteSpace=wrap;html=1;aspect=fixed;" parent="1" vertex="1">
          <mxGeometry x="84" y="-838.5" width="27" height="27" as="geometry" />
        </mxCell>
        <mxCell id="tDOr0GZJXbc1pfqS6N4M-70" value="&lt;div&gt;Norbu&lt;/div&gt;&lt;div&gt;Tostadores&lt;br&gt;&lt;/div&gt;" style="text;html=1;align=center;verticalAlign=middle;resizable=0;points=[];autosize=1;strokeColor=none;fillColor=none;fontSize=12;" parent="1" vertex="1">
          <mxGeometry x="59" y="-812.5" width="77" height="41" as="geometry" />
        </mxCell>
        <mxCell id="tDOr0GZJXbc1pfqS6N4M-71" value="" style="ellipse;whiteSpace=wrap;html=1;aspect=fixed;" parent="1" vertex="1">
          <mxGeometry x="166.25" y="-837.5" width="27" height="27" as="geometry" />
        </mxCell>
        <mxCell id="tDOr0GZJXbc1pfqS6N4M-72" value="Gerplast" style="text;html=1;align=center;verticalAlign=middle;resizable=0;points=[];autosize=1;strokeColor=none;fillColor=none;fontSize=12;" parent="1" vertex="1">
          <mxGeometry x="149.25" y="-805.5" width="63" height="26" as="geometry" />
        </mxCell>
        <mxCell id="tDOr0GZJXbc1pfqS6N4M-76" value="" style="ellipse;whiteSpace=wrap;html=1;aspect=fixed;" parent="1" vertex="1">
          <mxGeometry x="-348" y="-750" width="27" height="27" as="geometry" />
        </mxCell>
        <mxCell id="tDOr0GZJXbc1pfqS6N4M-77" value="Polair" style="text;html=1;align=center;verticalAlign=middle;resizable=0;points=[];autosize=1;strokeColor=none;fillColor=none;fontSize=12;" parent="1" vertex="1">
          <mxGeometry x="-358" y="-719" width="49" height="26" as="geometry" />
        </mxCell>
        <mxCell id="tDOr0GZJXbc1pfqS6N4M-78" value="" style="ellipse;whiteSpace=wrap;html=1;aspect=fixed;" parent="1" vertex="1">
          <mxGeometry x="-278" y="-751" width="27" height="27" as="geometry" />
        </mxCell>
        <mxCell id="tDOr0GZJXbc1pfqS6N4M-79" value="Waring" style="text;html=1;align=center;verticalAlign=middle;resizable=0;points=[];autosize=1;strokeColor=none;fillColor=none;fontSize=12;" parent="1" vertex="1">
          <mxGeometry x="-291" y="-721" width="56" height="26" as="geometry" />
        </mxCell>
        <mxCell id="tDOr0GZJXbc1pfqS6N4M-80" value="" style="ellipse;whiteSpace=wrap;html=1;aspect=fixed;" parent="1" vertex="1">
          <mxGeometry x="83.5" y="-750.5" width="27" height="27" as="geometry" />
        </mxCell>
        <mxCell id="tDOr0GZJXbc1pfqS6N4M-81" value="Carpigiani" style="text;html=1;align=center;verticalAlign=middle;resizable=0;points=[];autosize=1;strokeColor=none;fillColor=none;fontSize=12;" parent="1" vertex="1">
          <mxGeometry x="60.5" y="-719.5" width="72" height="26" as="geometry" />
        </mxCell>
        <mxCell id="tDOr0GZJXbc1pfqS6N4M-82" value="" style="ellipse;whiteSpace=wrap;html=1;aspect=fixed;" parent="1" vertex="1">
          <mxGeometry x="164" y="-750.5" width="27" height="27" as="geometry" />
        </mxCell>
        <mxCell id="tDOr0GZJXbc1pfqS6N4M-83" value="Gafa" style="text;html=1;align=center;verticalAlign=middle;resizable=0;points=[];autosize=1;strokeColor=none;fillColor=none;fontSize=12;" parent="1" vertex="1">
          <mxGeometry x="156" y="-715.5" width="44" height="26" as="geometry" />
        </mxCell>
        <mxCell id="tDOr0GZJXbc1pfqS6N4M-84" value="" style="ellipse;whiteSpace=wrap;html=1;aspect=fixed;" parent="1" vertex="1">
          <mxGeometry x="-351" y="-675" width="27" height="27" as="geometry" />
        </mxCell>
        <mxCell id="tDOr0GZJXbc1pfqS6N4M-85" value="Systel" style="text;html=1;align=center;verticalAlign=middle;resizable=0;points=[];autosize=1;strokeColor=none;fillColor=none;fontSize=12;" parent="1" vertex="1">
          <mxGeometry x="-364" y="-638" width="51" height="26" as="geometry" />
        </mxCell>
        <mxCell id="tDOr0GZJXbc1pfqS6N4M-86" value="" style="ellipse;whiteSpace=wrap;html=1;aspect=fixed;" parent="1" vertex="1">
          <mxGeometry x="-280.5" y="-675" width="27" height="27" as="geometry" />
        </mxCell>
        <mxCell id="tDOr0GZJXbc1pfqS6N4M-87" value="Peabody" style="text;html=1;align=center;verticalAlign=middle;resizable=0;points=[];autosize=1;strokeColor=none;fillColor=none;fontSize=12;" parent="1" vertex="1">
          <mxGeometry x="-301.5" y="-639" width="65" height="26" as="geometry" />
        </mxCell>
        <mxCell id="tDOr0GZJXbc1pfqS6N4M-88" value="" style="ellipse;whiteSpace=wrap;html=1;aspect=fixed;" parent="1" vertex="1">
          <mxGeometry x="81" y="-673.5" width="27" height="27" as="geometry" />
        </mxCell>
        <mxCell id="tDOr0GZJXbc1pfqS6N4M-89" value="Tie Polipapel" style="text;html=1;align=center;verticalAlign=middle;resizable=0;points=[];autosize=1;strokeColor=none;fillColor=none;fontSize=12;" parent="1" vertex="1">
          <mxGeometry x="53" y="-639.5" width="87" height="26" as="geometry" />
        </mxCell>
        <mxCell id="tDOr0GZJXbc1pfqS6N4M-90" value="" style="ellipse;whiteSpace=wrap;html=1;aspect=fixed;" parent="1" vertex="1">
          <mxGeometry x="164.25" y="-673.5" width="27" height="27" as="geometry" />
        </mxCell>
        <mxCell id="tDOr0GZJXbc1pfqS6N4M-91" value="Z Envases" style="text;html=1;align=center;verticalAlign=middle;resizable=0;points=[];autosize=1;strokeColor=none;fillColor=none;fontSize=12;" parent="1" vertex="1">
          <mxGeometry x="140.25" y="-638.5" width="75" height="26" as="geometry" />
        </mxCell>
        <mxCell id="tDOr0GZJXbc1pfqS6N4M-92" style="edgeStyle=elbowEdgeStyle;rounded=0;orthogonalLoop=1;jettySize=auto;html=1;exitX=0.25;exitY=0;exitDx=0;exitDy=0;entryX=0.75;entryY=0;entryDx=0;entryDy=0;fontSize=12;startSize=8;endSize=8;elbow=vertical;" parent="1" source="Qv3d4LhTkvHDMVTxzrqH-3" target="Qv3d4LhTkvHDMVTxzrqH-3" edge="1">
          <mxGeometry relative="1" as="geometry">
            <mxPoint x="317.2500000000002" y="-151" as="sourcePoint" />
            <mxPoint x="410.7500000000002" y="-151" as="targetPoint" />
            <Array as="points">
              <mxPoint x="410" y="-193" />
            </Array>
          </mxGeometry>
        </mxCell>
        <mxCell id="tDOr0GZJXbc1pfqS6N4M-93" value="INSUMO" style="edgeLabel;html=1;align=center;verticalAlign=middle;resizable=0;points=[];fontSize=12;" parent="tDOr0GZJXbc1pfqS6N4M-92" vertex="1" connectable="0">
          <mxGeometry x="-0.0963" y="-1" relative="1" as="geometry">
            <mxPoint x="11" y="-2" as="offset" />
          </mxGeometry>
        </mxCell>
        <mxCell id="XDq1gKsGRjvkehi91vJU-5" value="" style="shape=table;startSize=0;container=1;collapsible=0;childLayout=tableLayout;fillColor=#1ba1e2;strokeColor=#006EAF;labelPosition=left;verticalLabelPosition=middle;align=right;verticalAlign=middle;fontColor=#ffffff;" parent="1" vertex="1">
          <mxGeometry x="-790" y="-325" width="128" height="23" as="geometry" />
        </mxCell>
        <mxCell id="XDq1gKsGRjvkehi91vJU-6" value="" style="shape=tableRow;horizontal=0;startSize=0;swimlaneHead=0;swimlaneBody=0;strokeColor=inherit;top=0;left=0;bottom=0;right=0;collapsible=0;dropTarget=0;fillColor=none;points=[[0,0.5],[1,0.5]];portConstraint=eastwest;" parent="XDq1gKsGRjvkehi91vJU-5" vertex="1">
          <mxGeometry width="128" height="23" as="geometry" />
        </mxCell>
        <mxCell id="XDq1gKsGRjvkehi91vJU-7" value="&lt;div&gt;&lt;font color=&quot;#ffffff&quot;&gt;tipo = descartable&lt;/font&gt;&lt;/div&gt;" style="shape=partialRectangle;html=1;whiteSpace=wrap;connectable=0;strokeColor=inherit;overflow=hidden;fillColor=none;top=0;left=0;bottom=0;right=0;pointerEvents=1;fontStyle=1;fontSize=12;" parent="XDq1gKsGRjvkehi91vJU-6" vertex="1">
          <mxGeometry width="128" height="23" as="geometry">
            <mxRectangle width="128" height="23" as="alternateBounds" />
          </mxGeometry>
        </mxCell>
        <mxCell id="XDq1gKsGRjvkehi91vJU-8" value="" style="shape=table;startSize=0;container=1;collapsible=0;childLayout=tableLayout;fillColor=#1ba1e2;strokeColor=#006EAF;labelPosition=left;verticalLabelPosition=middle;align=right;verticalAlign=middle;fontColor=#ffffff;" parent="1" vertex="1">
          <mxGeometry x="-128.5" y="-88" width="120" height="23" as="geometry" />
        </mxCell>
        <mxCell id="XDq1gKsGRjvkehi91vJU-9" value="" style="shape=tableRow;horizontal=0;startSize=0;swimlaneHead=0;swimlaneBody=0;strokeColor=inherit;top=0;left=0;bottom=0;right=0;collapsible=0;dropTarget=0;fillColor=none;points=[[0,0.5],[1,0.5]];portConstraint=eastwest;" parent="XDq1gKsGRjvkehi91vJU-8" vertex="1">
          <mxGeometry width="120" height="23" as="geometry" />
        </mxCell>
        <mxCell id="XDq1gKsGRjvkehi91vJU-10" value="&lt;div&gt;&lt;font color=&quot;#ffffff&quot;&gt;tipo = elaborado&lt;br&gt;&lt;/font&gt;&lt;/div&gt;" style="shape=partialRectangle;html=1;whiteSpace=wrap;connectable=0;strokeColor=inherit;overflow=hidden;fillColor=none;top=0;left=0;bottom=0;right=0;pointerEvents=1;fontStyle=1;fontSize=12;" parent="XDq1gKsGRjvkehi91vJU-9" vertex="1">
          <mxGeometry width="120" height="23" as="geometry">
            <mxRectangle width="120" height="23" as="alternateBounds" />
          </mxGeometry>
        </mxCell>
        <mxCell id="XDq1gKsGRjvkehi91vJU-15" value="" style="shape=table;startSize=0;container=1;collapsible=0;childLayout=tableLayout;fillColor=#1ba1e2;strokeColor=#006EAF;labelPosition=left;verticalLabelPosition=middle;align=right;verticalAlign=middle;fontColor=#ffffff;" parent="1" vertex="1">
          <mxGeometry x="331.75" y="-183" width="166" height="23" as="geometry" />
        </mxCell>
        <mxCell id="XDq1gKsGRjvkehi91vJU-16" value="" style="shape=tableRow;horizontal=0;startSize=0;swimlaneHead=0;swimlaneBody=0;strokeColor=inherit;top=0;left=0;bottom=0;right=0;collapsible=0;dropTarget=0;fillColor=none;points=[[0,0.5],[1,0.5]];portConstraint=eastwest;" parent="XDq1gKsGRjvkehi91vJU-15" vertex="1">
          <mxGeometry width="166" height="23" as="geometry" />
        </mxCell>
        <mxCell id="XDq1gKsGRjvkehi91vJU-17" value="&lt;div&gt;&lt;font color=&quot;#ffffff&quot;&gt;tipo = simple / elaborado&lt;/font&gt;&lt;/div&gt;" style="shape=partialRectangle;html=1;whiteSpace=wrap;connectable=0;strokeColor=inherit;overflow=hidden;fillColor=none;top=0;left=0;bottom=0;right=0;pointerEvents=1;fontStyle=1;fontSize=12;" parent="XDq1gKsGRjvkehi91vJU-16" vertex="1">
          <mxGeometry width="166" height="23" as="geometry">
            <mxRectangle width="166" height="23" as="alternateBounds" />
          </mxGeometry>
        </mxCell>
        <mxCell id="XDq1gKsGRjvkehi91vJU-18" value="" style="shape=table;startSize=0;container=1;collapsible=0;childLayout=tableLayout;fillColor=#1ba1e2;strokeColor=#006EAF;labelPosition=left;verticalLabelPosition=middle;align=right;verticalAlign=middle;fontColor=#ffffff;" parent="1" vertex="1">
          <mxGeometry x="-532" y="-324" width="128" height="23" as="geometry" />
        </mxCell>
        <mxCell id="XDq1gKsGRjvkehi91vJU-19" value="" style="shape=tableRow;horizontal=0;startSize=0;swimlaneHead=0;swimlaneBody=0;strokeColor=inherit;top=0;left=0;bottom=0;right=0;collapsible=0;dropTarget=0;fillColor=none;points=[[0,0.5],[1,0.5]];portConstraint=eastwest;" parent="XDq1gKsGRjvkehi91vJU-18" vertex="1">
          <mxGeometry width="128" height="23" as="geometry" />
        </mxCell>
        <mxCell id="XDq1gKsGRjvkehi91vJU-20" value="&lt;div&gt;&lt;font color=&quot;#ffffff&quot;&gt;tipo = descartable&lt;/font&gt;&lt;/div&gt;" style="shape=partialRectangle;html=1;whiteSpace=wrap;connectable=0;strokeColor=inherit;overflow=hidden;fillColor=none;top=0;left=0;bottom=0;right=0;pointerEvents=1;fontStyle=1;fontSize=12;" parent="XDq1gKsGRjvkehi91vJU-19" vertex="1">
          <mxGeometry width="128" height="23" as="geometry">
            <mxRectangle width="128" height="23" as="alternateBounds" />
          </mxGeometry>
        </mxCell>
        <mxCell id="L1drH5XASF7p8J0Dx8UT-1" value="(Producto)" style="rounded=0;whiteSpace=wrap;html=1;" vertex="1" parent="1">
          <mxGeometry x="-148.5" y="-310" width="174" height="44" as="geometry" />
        </mxCell>
        <mxCell id="L1drH5XASF7p8J0Dx8UT-2" style="edgeStyle=none;curved=1;rounded=1;orthogonalLoop=1;jettySize=auto;html=1;entryX=0.25;entryY=1;entryDx=0;entryDy=0;fontSize=12;strokeColor=default;shape=flexArrow;endSize=5.96;startArrow=none;startFill=0;strokeWidth=1;width=2.6666666666666665;endWidth=9;exitX=1;exitY=0;exitDx=0;exitDy=0;" edge="1" parent="1" source="Qv3d4LhTkvHDMVTxzrqH-2" target="L1drH5XASF7p8J0Dx8UT-1">
          <mxGeometry relative="1" as="geometry">
            <mxPoint x="-265.5" y="-154" as="sourcePoint" />
            <mxPoint x="-168.5" y="-274" as="targetPoint" />
          </mxGeometry>
        </mxCell>
        <mxCell id="L1drH5XASF7p8J0Dx8UT-3" style="edgeStyle=none;curved=1;rounded=1;orthogonalLoop=1;jettySize=auto;html=1;entryX=0.75;entryY=1;entryDx=0;entryDy=0;fontSize=12;strokeColor=default;shape=flexArrow;endSize=5.96;startArrow=none;startFill=0;strokeWidth=1;width=2.6666666666666665;endWidth=9;exitX=0;exitY=0;exitDx=0;exitDy=0;" edge="1" parent="1" source="Qv3d4LhTkvHDMVTxzrqH-3" target="L1drH5XASF7p8J0Dx8UT-1">
          <mxGeometry relative="1" as="geometry">
            <mxPoint x="187" y="-166" as="sourcePoint" />
            <mxPoint x="108" y="-287" as="targetPoint" />
          </mxGeometry>
        </mxCell>
        <mxCell id="L_YjPf033X-OpGffFkXy-272" value="" style="shape=table;startSize=0;container=1;collapsible=0;childLayout=tableLayout;fillColor=#000000;strokeColor=#FFFFFF;fontColor=#FFFFFF;labelPosition=left;verticalLabelPosition=middle;align=right;verticalAlign=middle;" parent="1" vertex="1">
          <mxGeometry x="-227.5" y="-327" width="90" height="29" as="geometry" />
        </mxCell>
        <mxCell id="L_YjPf033X-OpGffFkXy-273" value="" style="shape=tableRow;horizontal=0;startSize=0;swimlaneHead=0;swimlaneBody=0;strokeColor=inherit;top=0;left=0;bottom=0;right=0;collapsible=0;dropTarget=0;fillColor=none;points=[[0,0.5],[1,0.5]];portConstraint=eastwest;" parent="L_YjPf033X-OpGffFkXy-272" vertex="1">
          <mxGeometry width="90" height="29" as="geometry" />
        </mxCell>
        <mxCell id="L_YjPf033X-OpGffFkXy-274" value="&lt;font color=&quot;#ffffff&quot;&gt;nombre =&lt;br&gt;&lt;/font&gt;" style="shape=partialRectangle;html=1;whiteSpace=wrap;connectable=0;strokeColor=inherit;overflow=hidden;fillColor=none;top=0;left=0;bottom=0;right=0;pointerEvents=1;fontStyle=1;fontSize=12;" parent="L_YjPf033X-OpGffFkXy-273" vertex="1">
          <mxGeometry width="90" height="29" as="geometry">
            <mxRectangle width="90" height="29" as="alternateBounds" />
          </mxGeometry>
        </mxCell>
      </root>
    </mxGraphModel>
  </diagram>
</mxfile>
